Russolo-10ptExtraLight.ufo
<glyph name="period" format="2">
  <advance width="441"/>
  <unicode hex="002E"/>
  <note>
period
</note>
  <outline>
    <contour>
      <point x="221" y="-16" type="curve" smooth="yes"/>
      <point x="274" y="-16"/>
      <point x="309" y="20"/>
      <point x="309" y="74" type="curve" smooth="yes"/>
      <point x="309" y="127"/>
      <point x="274" y="162"/>
      <point x="221" y="162" type="curve" smooth="yes"/>
      <point x="167" y="162"/>
      <point x="132" y="128"/>
      <point x="132" y="74" type="curve" smooth="yes"/>
      <point x="132" y="21"/>
      <point x="167" y="-16"/>
    </contour>
  </outline>
</glyph>
<glyph name="eight" format="2">
  <advance width="1058"/>
  <unicode hex="0038"/>
  <note>
eight
</note>
  <outline>
    <contour>
      <point x="541" y="-30" type="curve" smooth="yes"/>
      <point x="793" y="-30"/>
      <point x="954" y="129"/>
      <point x="954" y="372" type="curve" smooth="yes"/>
      <point x="954" y="592"/>
      <point x="806" y="746"/>
      <point x="555" y="828" type="curve" smooth="yes"/>
      <point x="288" y="915"/>
      <point x="252" y="1004"/>
      <point x="252" y="1109" type="curve" smooth="yes"/>
      <point x="252" y="1267"/>
      <point x="360" y="1366"/>
      <point x="532" y="1366" type="curve" smooth="yes"/>
      <point x="689" y="1366"/>
      <point x="817" y="1263"/>
      <point x="817" y="1107" type="curve" smooth="yes"/>
      <point x="817" y="1002"/>
      <point x="739" y="888"/>
      <point x="558" y="789" type="curve"/>
      <point x="637" y="769" type="line"/>
      <point x="769" y="842"/>
      <point x="900" y="989"/>
      <point x="900" y="1127" type="curve" smooth="yes"/>
      <point x="900" y="1333"/>
      <point x="708" y="1443"/>
      <point x="521" y="1443" type="curve" smooth="yes"/>
      <point x="312" y="1443"/>
      <point x="170" y="1312"/>
      <point x="170" y="1105" type="curve" smooth="yes"/>
      <point x="170" y="936"/>
      <point x="326" y="824"/>
      <point x="489" y="767" type="curve" smooth="yes"/>
      <point x="801" y="658"/>
      <point x="865" y="535"/>
      <point x="865" y="384" type="curve" smooth="yes"/>
      <point x="865" y="184"/>
      <point x="746" y="54"/>
      <point x="531" y="54" type="curve" smooth="yes"/>
      <point x="321" y="54"/>
      <point x="191" y="183"/>
      <point x="191" y="387" type="curve" smooth="yes"/>
      <point x="191" y="534"/>
      <point x="274" y="659"/>
      <point x="489" y="767" type="curve"/>
      <point x="420" y="799" type="line"/>
      <point x="222" y="705"/>
      <point x="104" y="546"/>
      <point x="104" y="357" type="curve" smooth="yes"/>
      <point x="104" y="125"/>
      <point x="303" y="-30"/>
    </contour>
  </outline>
</glyph>
<glyph name="nine" format="2">
  <advance width="1114"/>
  <unicode hex="0039"/>
  <note>
nine
</note>
  <outline>
    <contour>
      <point x="290" y="-33" type="line"/>
      <point x="521" y="-9"/>
      <point x="700" y="139"/>
      <point x="771" y="208" type="curve" smooth="yes"/>
      <point x="830" y="265"/>
      <point x="874" y="329"/>
      <point x="907" y="393" type="curve" smooth="yes"/>
      <point x="1009" y="592"/>
      <point x="1005" y="800"/>
      <point x="1005" y="869" type="curve" smooth="yes"/>
      <point x="1005" y="1330"/>
      <point x="798" y="1432"/>
      <point x="580" y="1435" type="curve" smooth="yes"/>
      <point x="263" y="1439"/>
      <point x="105" y="1231"/>
      <point x="105" y="957" type="curve" smooth="yes"/>
      <point x="105" y="689"/>
      <point x="284" y="505"/>
      <point x="544" y="505" type="curve" smooth="yes"/>
      <point x="742" y="505"/>
      <point x="913" y="611"/>
      <point x="944" y="837" type="curve"/>
      <point x="910" y="816" type="line"/>
      <point x="913" y="634"/>
      <point x="882" y="448"/>
      <point x="739" y="290" type="curve" smooth="yes"/>
      <point x="682" y="227"/>
      <point x="532" y="85"/>
      <point x="290" y="40" type="curve"/>
    </contour>
    <contour>
      <point x="535" y="583" type="curve" smooth="yes"/>
      <point x="259" y="583"/>
      <point x="201" y="824"/>
      <point x="201" y="973" type="curve" smooth="yes"/>
      <point x="201" y="1215"/>
      <point x="360" y="1361"/>
      <point x="562" y="1358" type="curve" smooth="yes"/>
      <point x="800" y="1355"/>
      <point x="910" y="1148"/>
      <point x="906" y="940" type="curve" smooth="yes"/>
      <point x="902" y="688"/>
      <point x="720" y="583"/>
    </contour>
  </outline>
</glyph>
<glyph name="A" format="2">
  <advance width="1478"/>
  <unicode hex="0041"/>
  <note>
A
</note>
  <anchor x="739" y="-20" name="bottom"/>
  <anchor x="1329" y="0" name="ogonek"/>
  <anchor x="739" y="1430" name="top"/>
  <outline>
    <contour>
      <point x="105" y="0" type="line"/>
      <point x="190" y="0" type="line"/>
      <point x="760" y="1320" type="line"/>
      <point x="699" y="1350" type="line"/>
      <point x="1284" y="0" type="line"/>
      <point x="1373" y="0" type="line"/>
      <point x="738" y="1466" type="line"/>
    </contour>
    <contour>
      <point x="342" y="510" type="line"/>
      <point x="1137" y="510" type="line"/>
      <point x="1106" y="587" type="line"/>
      <point x="373" y="587" type="line"/>
    </contour>
  </outline>
</glyph>
<glyph name="D" format="2">
  <advance width="1360"/>
  <unicode hex="0044"/>
  <note>
D
</note>
  <anchor x="680" y="-20" name="bottom"/>
  <anchor x="189" y="715" name="center"/>
  <anchor x="680" y="1430" name="top"/>
  <outline>
    <contour>
      <point x="143" y="0" type="line"/>
      <point x="485" y="0" type="line" smooth="yes"/>
      <point x="707" y="0"/>
      <point x="849" y="30"/>
      <point x="976" y="102" type="curve" smooth="yes"/>
      <point x="1154" y="204"/>
      <point x="1245" y="412"/>
      <point x="1245" y="714" type="curve" smooth="yes"/>
      <point x="1245" y="981"/>
      <point x="1173" y="1176"/>
      <point x="1036" y="1283" type="curve" smooth="yes"/>
      <point x="898" y="1391"/>
      <point x="727" y="1430"/>
      <point x="422" y="1430" type="curve" smooth="yes"/>
      <point x="143" y="1430" type="line"/>
    </contour>
    <contour>
      <point x="236" y="16" type="line"/>
      <point x="236" y="1414" type="line"/>
      <point x="186" y="1353" type="line"/>
      <point x="503" y="1353" type="line" smooth="yes"/>
      <point x="954" y="1353"/>
      <point x="1153" y="1157"/>
      <point x="1153" y="719" type="curve" smooth="yes"/>
      <point x="1153" y="274"/>
      <point x="952" y="77"/>
      <point x="495" y="77" type="curve" smooth="yes"/>
      <point x="186" y="77" type="line"/>
    </contour>
  </outline>
</glyph>
<glyph name="E" format="2">
  <advance width="1068"/>
  <unicode hex="0045"/>
  <note>
E
</note>
  <anchor x="534" y="-20" name="bottom"/>
  <anchor x="781" y="0" name="ogonek"/>
  <anchor x="574" y="1430" name="top"/>
  <anchor x="-5" y="1430" name="topleft"/>
  <outline>
    <contour>
      <point x="143" y="0" type="line"/>
      <point x="955" y="0" type="line"/>
      <point x="955" y="77" type="line"/>
      <point x="160" y="77" type="line"/>
      <point x="226" y="16" type="line"/>
      <point x="226" y="757" type="line"/>
      <point x="189" y="689" type="line"/>
      <point x="955" y="689" type="line"/>
      <point x="955" y="766" type="line"/>
      <point x="160" y="766" type="line"/>
      <point x="226" y="705" type="line"/>
      <point x="226" y="1419" type="line"/>
      <point x="179" y="1353" type="line"/>
      <point x="955" y="1353" type="line"/>
      <point x="955" y="1430" type="line"/>
      <point x="143" y="1430" type="line"/>
    </contour>
  </outline>
</glyph>
<glyph name="K" format="2">
  <advance width="1315"/>
  <unicode hex="004B"/>
  <note>
K
</note>
  <anchor x="658" y="-20" name="bottom"/>
  <anchor x="658" y="1430" name="top"/>
  <outline>
    <contour>
      <point x="143" y="0" type="line"/>
      <point x="226" y="0" type="line"/>
      <point x="226" y="1430" type="line"/>
      <point x="143" y="1430" type="line"/>
    </contour>
    <contour>
      <point x="203" y="492" type="line"/>
      <point x="1146" y="1430" type="line"/>
      <point x="1054" y="1430" type="line"/>
      <point x="204" y="585" type="line"/>
    </contour>
    <contour>
      <point x="1078" y="0" type="line"/>
      <point x="1211" y="0" type="line"/>
      <point x="496" y="823" type="line"/>
      <point x="431" y="745" type="line"/>
    </contour>
  </outline>
</glyph>
<glyph name="Z" format="2">
  <advance width="1318"/>
  <unicode hex="005A"/>
  <note>
Z
</note>
  <anchor x="659" y="-20" name="bottom"/>
  <anchor x="659" y="715" name="center"/>
  <anchor x="659" y="1430" name="top"/>
  <outline>
    <contour>
      <point x="104" y="0" type="line"/>
      <point x="1178" y="0" type="line"/>
      <point x="1175" y="77" type="line"/>
      <point x="222" y="77" type="line"/>
      <point x="215" y="23" type="line"/>
      <point x="1213" y="1430" type="line"/>
      <point x="161" y="1430" type="line"/>
      <point x="161" y="1353" type="line"/>
      <point x="1123" y="1353" type="line"/>
      <point x="1104" y="1408" type="line"/>
    </contour>
  </outline>
</glyph>
<glyph name="a" format="2">
  <advance width="1105"/>
  <unicode hex="0061"/>
  <note>
a
</note>
  <anchor x="541" y="-20" name="bottom"/>
  <anchor x="948" y="0" name="ogonek"/>
  <anchor x="551" y="1009" name="top"/>
  <outline>
    <contour>
      <point x="526" y="-28" type="curve" smooth="yes"/>
      <point x="733" y="-28"/>
      <point x="885" y="93"/>
      <point x="942" y="310" type="curve"/>
      <point x="915" y="342" type="line"/>
      <point x="903" y="0" type="line"/>
      <point x="995" y="0" type="line"/>
      <point x="995" y="990" type="line"/>
      <point x="904" y="990" type="line"/>
      <point x="904" y="627" type="line"/>
      <point x="944" y="653" type="line"/>
      <point x="884" y="883"/>
      <point x="731" y="1016"/>
      <point x="525" y="1016" type="curve" smooth="yes"/>
      <point x="266" y="1016"/>
      <point x="85" y="796"/>
      <point x="85" y="482" type="curve" smooth="yes"/>
      <point x="85" y="176"/>
      <point x="260" y="-28"/>
    </contour>
    <contour>
      <point x="530" y="53" type="curve" smooth="yes"/>
      <point x="304" y="53"/>
      <point x="171" y="216"/>
      <point x="171" y="492" type="curve" smooth="yes"/>
      <point x="171" y="769"/>
      <point x="305" y="935"/>
      <point x="529" y="935" type="curve" smooth="yes"/>
      <point x="755" y="935"/>
      <point x="903" y="756"/>
      <point x="903" y="482" type="curve" smooth="yes"/>
      <point x="903" y="216"/>
      <point x="760" y="53"/>
    </contour>
  </outline>
</glyph>
<glyph name="d" format="2">
  <advance width="1106"/>
  <unicode hex="0064"/>
  <note>
d
</note>
  <anchor x="532" y="-20" name="bottom"/>
  <anchor x="946" y="1320" name="center"/>
  <anchor x="552" y="1514" name="top"/>
  <anchor x="1213" y="1514" name="topright"/>
  <outline>
    <contour>
      <point x="526" y="-28" type="curve" smooth="yes"/>
      <point x="736" y="-28"/>
      <point x="888" y="88"/>
      <point x="946" y="310" type="curve"/>
      <point x="905" y="335" type="line"/>
      <point x="905" y="0" type="line"/>
      <point x="990" y="0" type="line"/>
      <point x="990" y="1514" type="line"/>
      <point x="905" y="1514" type="line"/>
      <point x="905" y="626" type="line"/>
      <point x="945" y="650" type="line"/>
      <point x="886" y="883"/>
      <point x="731" y="1019"/>
      <point x="525" y="1019" type="curve" smooth="yes"/>
      <point x="266" y="1019"/>
      <point x="85" y="801"/>
      <point x="85" y="484" type="curve" smooth="yes"/>
      <point x="85" y="173"/>
      <point x="261" y="-28"/>
    </contour>
    <contour>
      <point x="530" y="54" type="curve" smooth="yes"/>
      <point x="304" y="54"/>
      <point x="171" y="213"/>
      <point x="171" y="493" type="curve" smooth="yes"/>
      <point x="171" y="775"/>
      <point x="305" y="937"/>
      <point x="529" y="937" type="curve" smooth="yes"/>
      <point x="756" y="937"/>
      <point x="903" y="756"/>
      <point x="903" y="478" type="curve" smooth="yes"/>
      <point x="903" y="210"/>
      <point x="760" y="54"/>
    </contour>
  </outline>
</glyph>
<glyph name="h" format="2">
  <advance width="1001"/>
  <unicode hex="0068"/>
  <note>
h
</note>
  <anchor x="501" y="0" name="bottom"/>
  <anchor x="160" y="1320" name="center"/>
  <anchor x="501" y="1514" name="top"/>
  <outline>
    <contour>
      <point x="116" y="0" type="line"/>
      <point x="202" y="0" type="line"/>
      <point x="202" y="571" type="line" smooth="yes"/>
      <point x="202" y="796"/>
      <point x="327" y="935"/>
      <point x="528" y="935" type="curve" smooth="yes"/>
      <point x="729" y="935"/>
      <point x="815" y="827"/>
      <point x="815" y="580" type="curve" smooth="yes"/>
      <point x="815" y="0" type="line"/>
      <point x="901" y="0" type="line"/>
      <point x="901" y="586" type="line" smooth="yes"/>
      <point x="901" y="874"/>
      <point x="783" y="1016"/>
      <point x="542" y="1016" type="curve" smooth="yes"/>
      <point x="342" y="1016"/>
      <point x="207" y="895"/>
      <point x="176" y="660" type="curve"/>
      <point x="202" y="670" type="line"/>
      <point x="202" y="1514" type="line"/>
      <point x="116" y="1514" type="line"/>
    </contour>
  </outline>
</glyph>
<glyph name="m" format="2">
  <advance width="1726"/>
  <unicode hex="006D"/>
  <note>
m
</note>
  <anchor x="863" y="0" name="bottom"/>
  <anchor x="863" y="1009" name="top"/>
  <outline>
    <contour>
      <point x="110" y="0" type="line"/>
      <point x="196" y="0" type="line"/>
      <point x="196" y="571" type="line" smooth="yes"/>
      <point x="196" y="799"/>
      <point x="330" y="936"/>
      <point x="555" y="936" type="curve" smooth="yes"/>
      <point x="747" y="936"/>
      <point x="827" y="845"/>
      <point x="827" y="631" type="curve" smooth="yes"/>
      <point x="827" y="0" type="line"/>
      <point x="913" y="0" type="line"/>
      <point x="913" y="571" type="line" smooth="yes"/>
      <point x="913" y="800"/>
      <point x="1043" y="933"/>
      <point x="1268" y="933" type="curve" smooth="yes"/>
      <point x="1460" y="933"/>
      <point x="1538" y="844"/>
      <point x="1538" y="631" type="curve" smooth="yes"/>
      <point x="1538" y="1" type="line"/>
      <point x="1624" y="1" type="line"/>
      <point x="1624" y="658" type="line" smooth="yes"/>
      <point x="1624" y="895"/>
      <point x="1511" y="1016"/>
      <point x="1285" y="1016" type="curve" smooth="yes"/>
      <point x="1052" y="1016"/>
      <point x="904" y="893"/>
      <point x="877" y="673" type="curve"/>
      <point x="909" y="671" type="line"/>
      <point x="902" y="903"/>
      <point x="791" y="1016"/>
      <point x="572" y="1016" type="curve" smooth="yes"/>
      <point x="353" y="1016"/>
      <point x="210" y="905"/>
      <point x="173" y="705" type="curve"/>
      <point x="196" y="659" type="line"/>
      <point x="196" y="990" type="line"/>
      <point x="110" y="990" type="line"/>
    </contour>
  </outline>
</glyph>
<glyph name="p" format="2">
  <advance width="1086"/>
  <unicode hex="0070"/>
  <note>
p
</note>
  <anchor x="543" y="-20" name="bottom"/>
  <anchor x="543" y="989" name="top"/>
  <outline>
    <contour>
      <point x="116" y="-526" type="line"/>
      <point x="202" y="-526" type="line"/>
      <point x="202" y="364" type="line"/>
      <point x="162" y="339" type="line"/>
      <point x="219" y="110"/>
      <point x="371" y="-25"/>
      <point x="571" y="-25" type="curve" smooth="yes"/>
      <point x="826" y="-25"/>
      <point x="1001" y="195"/>
      <point x="1001" y="509" type="curve" smooth="yes"/>
      <point x="1001" y="815"/>
      <point x="830" y="1016"/>
      <point x="570" y="1016" type="curve" smooth="yes"/>
      <point x="365" y="1016"/>
      <point x="218" y="896"/>
      <point x="162" y="677" type="curve"/>
      <point x="201" y="651" type="line"/>
      <point x="201" y="990" type="line"/>
      <point x="116" y="990" type="line"/>
    </contour>
    <contour>
      <point x="567" y="56" type="curve" smooth="yes"/>
      <point x="348" y="56"/>
      <point x="204" y="234"/>
      <point x="204" y="509" type="curve" smooth="yes"/>
      <point x="204" y="775"/>
      <point x="343" y="936"/>
      <point x="566" y="936" type="curve" smooth="yes"/>
      <point x="786" y="936"/>
      <point x="915" y="777"/>
      <point x="915" y="499" type="curve" smooth="yes"/>
      <point x="915" y="221"/>
      <point x="785" y="56"/>
    </contour>
  </outline>
</glyph>
<glyph name="braceright" format="2">
  <advance width="695"/>
  <unicode hex="007D"/>
  <note>
braceright
</note>
  <outline>
    <contour>
      <point x="103" y="-387" type="line"/>
      <point x="331" y="-397"/>
      <point x="474" y="-261"/>
      <point x="474" y="-35" type="curve" smooth="yes"/>
      <point x="474" y="343" type="line" smooth="yes"/>
      <point x="474" y="390"/>
      <point x="504" y="424"/>
      <point x="597" y="486" type="curve"/>
      <point x="499" y="556"/>
      <point x="474" y="580"/>
      <point x="474" y="629" type="curve" smooth="yes"/>
      <point x="474" y="1108" type="line" smooth="yes"/>
      <point x="474" y="1333"/>
      <point x="330" y="1471"/>
      <point x="103" y="1460" type="curve"/>
      <point x="103" y="1368" type="line"/>
      <point x="307" y="1369"/>
      <point x="383" y="1280"/>
      <point x="383" y="1040" type="curve" smooth="yes"/>
      <point x="383" y="629" type="line" smooth="yes"/>
      <point x="383" y="577"/>
      <point x="408" y="537"/>
      <point x="466" y="487" type="curve"/>
      <point x="408" y="439"/>
      <point x="383" y="397"/>
      <point x="383" y="343" type="curve" smooth="yes"/>
      <point x="383" y="33" type="line" smooth="yes"/>
      <point x="383" y="-226"/>
      <point x="323" y="-296"/>
      <point x="103" y="-295" type="curve"/>
    </contour>
  </outline>
</glyph>
<glyph name="asciitilde" format="2">
  <advance width="1142"/>
  <unicode hex="007E"/>
  <note>
asciitilde
</note>
  <outline>
    <contour>
      <point x="739" y="619" type="curve" smooth="yes"/>
      <point x="842" y="619"/>
      <point x="913" y="665"/>
      <point x="1004" y="785" type="curve"/>
      <point x="964" y="827" type="line"/>
      <point x="919" y="770"/>
      <point x="814" y="722"/>
      <point x="734" y="722" type="curve" smooth="yes"/>
      <point x="665" y="722"/>
      <point x="618" y="757"/>
      <point x="591" y="776" type="curve" smooth="yes"/>
      <point x="525" y="821"/>
      <point x="477" y="848"/>
      <point x="398" y="848" type="curve" smooth="yes"/>
      <point x="291" y="848"/>
      <point x="215" y="796"/>
      <point x="138" y="676" type="curve"/>
      <point x="181" y="638" type="line"/>
      <point x="223" y="691"/>
      <point x="311" y="742"/>
      <point x="400" y="742" type="curve" smooth="yes"/>
      <point x="478" y="742"/>
      <point x="528" y="701"/>
      <point x="561" y="680" type="curve" smooth="yes"/>
      <point x="640" y="629"/>
      <point x="681" y="619"/>
    </contour>
  </outline>
</glyph>
<glyph name="Euro" format="2">
  <advance width="1544"/>
  <unicode hex="0080"/>
  <note>
Euro
</note>
  <outline>
    <contour>
      <point x="913" y="-12" type="curve" smooth="yes"/>
      <point x="1132" y="-12"/>
      <point x="1281" y="96"/>
      <point x="1395" y="301" type="curve"/>
      <point x="1292" y="301" type="line"/>
      <point x="1229" y="168"/>
      <point x="1094" y="68"/>
      <point x="919" y="68" type="curve" smooth="yes"/>
      <point x="631" y="68"/>
      <point x="408" y="331"/>
      <point x="408" y="715" type="curve" smooth="yes"/>
      <point x="408" y="1088"/>
      <point x="629" y="1360"/>
      <point x="915" y="1360" type="curve" smooth="yes"/>
      <point x="1094" y="1360"/>
      <point x="1241" y="1253"/>
      <point x="1293" y="1137" type="curve"/>
      <point x="1389" y="1137" type="line"/>
      <point x="1299" y="1321"/>
      <point x="1140" y="1440"/>
      <point x="914" y="1440" type="curve" smooth="yes"/>
      <point x="557" y="1440"/>
      <point x="315" y="1151"/>
      <point x="316" y="713" type="curve" smooth="yes"/>
      <point x="317" y="282"/>
      <point x="551" y="-12"/>
    </contour>
    <contour>
      <point x="148" y="516" type="line"/>
      <point x="974" y="516" type="line"/>
      <point x="991" y="593" type="line"/>
      <point x="165" y="593" type="line"/>
    </contour>
    <contour>
      <point x="196" y="808" type="line"/>
      <point x="1022" y="808" type="line"/>
      <point x="1042" y="885" type="line"/>
      <point x="216" y="885" type="line"/>
    </contour>
  </outline>
</glyph>
<glyph name="sterling" format="2">
  <advance width="1186"/>
  <unicode hex="00A3"/>
  <note>
sterling
</note>
  <outline>
    <contour>
      <point x="317" y="49" type="curve" smooth="yes"/>
      <point x="445" y="49"/>
      <point x="679" y="219"/>
      <point x="679" y="460" type="curve" smooth="yes"/>
      <point x="679" y="684"/>
      <point x="563" y="733"/>
      <point x="450" y="815" type="curve" smooth="yes"/>
      <point x="335" y="898"/>
      <point x="282" y="1026"/>
      <point x="282" y="1140" type="curve" smooth="yes"/>
      <point x="282" y="1295"/>
      <point x="391" y="1381"/>
      <point x="588" y="1381" type="curve" smooth="yes"/>
      <point x="769" y="1381"/>
      <point x="914" y="1329"/>
      <point x="926" y="1204" type="curve"/>
      <point x="1002" y="1204" type="line"/>
      <point x="977" y="1374"/>
      <point x="828" y="1456"/>
      <point x="597" y="1456" type="curve" smooth="yes"/>
      <point x="318" y="1456"/>
      <point x="194" y="1319"/>
      <point x="194" y="1119" type="curve" smooth="yes"/>
      <point x="194" y="901"/>
      <point x="328" y="803"/>
      <point x="439" y="726" type="curve" smooth="yes"/>
      <point x="543" y="654"/>
      <point x="585" y="619"/>
      <point x="585" y="436" type="curve" smooth="yes"/>
      <point x="585" y="252"/>
      <point x="390" y="94"/>
      <point x="158" y="85" type="curve"/>
      <point x="235" y="16"/>
      <point x="182" y="49"/>
    </contour>
    <contour>
      <point x="158" y="0" type="line"/>
      <point x="1037" y="0" type="line"/>
      <point x="1037" y="85" type="line"/>
      <point x="158" y="85" type="line"/>
    </contour>
    <contour>
      <point x="152" y="684" type="line"/>
      <point x="961" y="684" type="line"/>
      <point x="961" y="761" type="line"/>
      <point x="152" y="761" type="line"/>
    </contour>
  </outline>
</glyph>
<glyph name="section" format="2">
  <advance width="1343"/>
  <unicode hex="00A7"/>
  <note>
section
</note>
  <outline>
    <contour>
      <point x="657" y="-457" type="curve" smooth="yes"/>
      <point x="947" y="-457"/>
      <point x="1133" y="-329"/>
      <point x="1133" y="-124" type="curve" smooth="yes"/>
      <point x="1133" y="58"/>
      <point x="1016" y="160"/>
      <point x="768" y="205" type="curve"/>
      <point x="764" y="139" type="line"/>
      <point x="1062" y="192"/>
      <point x="1205" y="310"/>
      <point x="1205" y="518" type="curve" smooth="yes"/>
      <point x="1205" y="695"/>
      <point x="1105" y="816"/>
      <point x="828" y="913" type="curve" smooth="yes"/>
      <point x="648" y="976"/>
      <point x="502" y="1026"/>
      <point x="502" y="1146" type="curve" smooth="yes"/>
      <point x="502" y="1253"/>
      <point x="579" y="1407"/>
      <point x="668" y="1407" type="curve" smooth="yes"/>
      <point x="765" y="1407"/>
      <point x="831" y="1247"/>
      <point x="832" y="1103" type="curve"/>
      <point x="1124" y="1103" type="line"/>
      <point x="1124" y="1138" type="line" smooth="yes"/>
      <point x="1124" y="1357"/>
      <point x="961" y="1479"/>
      <point x="679" y="1479" type="curve" smooth="yes"/>
      <point x="392" y="1479"/>
      <point x="196" y="1347"/>
      <point x="196" y="1148" type="curve" smooth="yes"/>
      <point x="196" y="982"/>
      <point x="314" y="891"/>
      <point x="588" y="814" type="curve"/>
      <point x="567" y="885" type="line"/>
      <point x="298" y="858"/>
      <point x="139" y="713"/>
      <point x="139" y="504" type="curve" smooth="yes"/>
      <point x="139" y="309"/>
      <point x="247" y="211"/>
      <point x="601" y="86" type="curve" smooth="yes"/>
      <point x="733" y="40"/>
      <point x="832" y="-18"/>
      <point x="832" y="-118" type="curve" smooth="yes"/>
      <point x="832" y="-230"/>
      <point x="764" y="-385"/>
      <point x="661" y="-385" type="curve" smooth="yes"/>
      <point x="559" y="-385"/>
      <point x="481" y="-217"/>
      <point x="480" y="-73" type="curve"/>
      <point x="185" y="-73" type="line"/>
      <point x="185" y="-108" type="line" smooth="yes"/>
      <point x="185" y="-317"/>
      <point x="377" y="-457"/>
    </contour>
    <contour>
      <point x="669" y="246" type="curve" smooth="yes"/>
      <point x="535" y="246"/>
      <point x="425" y="366"/>
      <point x="425" y="518" type="curve" smooth="yes"/>
      <point x="425" y="672"/>
      <point x="535" y="788"/>
      <point x="669" y="788" type="curve" smooth="yes"/>
      <point x="804" y="788"/>
      <point x="919" y="672"/>
      <point x="919" y="518" type="curve" smooth="yes"/>
      <point x="919" y="367"/>
      <point x="802" y="246"/>
    </contour>
  </outline>
</glyph>
<glyph name="copyright" format="2">
  <advance width="1762"/>
  <unicode hex="00A9"/>
  <note>
copyright
</note>
  <outline>
    <contour>
      <point x="880" y="-10" type="curve" smooth="yes"/>
      <point x="1084" y="-10"/>
      <point x="1271" y="77"/>
      <point x="1407" y="202" type="curve" smooth="yes"/>
      <point x="1554" y="339"/>
      <point x="1619" y="519"/>
      <point x="1619" y="708" type="curve" smooth="yes"/>
      <point x="1619" y="919"/>
      <point x="1551" y="1081"/>
      <point x="1407" y="1214" type="curve" smooth="yes"/>
      <point x="1268" y="1343"/>
      <point x="1088" y="1426"/>
      <point x="880" y="1426" type="curve" smooth="yes"/>
      <point x="691" y="1426"/>
      <point x="502" y="1349"/>
      <point x="362" y="1216" type="curve" smooth="yes"/>
      <point x="216" y="1078"/>
      <point x="143" y="893"/>
      <point x="143" y="708" type="curve" smooth="yes"/>
      <point x="143" y="511"/>
      <point x="215" y="339"/>
      <point x="362" y="200" type="curve" smooth="yes"/>
      <point x="501" y="68"/>
      <point x="687" y="-10"/>
    </contour>
    <contour>
      <point x="885" y="259" type="curve" smooth="yes"/>
      <point x="1074" y="259"/>
      <point x="1219" y="369"/>
      <point x="1248" y="559" type="curve"/>
      <point x="1160" y="559" type="line"/>
      <point x="1138" y="434"/>
      <point x="1030" y="350"/>
      <point x="893" y="350" type="curve" smooth="yes"/>
      <point x="711" y="350"/>
      <point x="590" y="500"/>
      <point x="590" y="706" type="curve" smooth="yes"/>
      <point x="590" y="916"/>
      <point x="716" y="1070"/>
      <point x="893" y="1070" type="curve" smooth="yes"/>
      <point x="1027" y="1070"/>
      <point x="1129" y="981"/>
      <point x="1148" y="881" type="curve"/>
      <point x="1238" y="881" type="line"/>
      <point x="1208" y="1059"/>
      <point x="1075" y="1160"/>
      <point x="895" y="1160" type="curve" smooth="yes"/>
      <point x="654" y="1160"/>
      <point x="498" y="980"/>
      <point x="498" y="704" type="curve" smooth="yes"/>
      <point x="498" y="434"/>
      <point x="646" y="259"/>
    </contour>
    <contour>
      <point x="880" y="77" type="curve" smooth="yes"/>
      <point x="707" y="77"/>
      <point x="546" y="146"/>
      <point x="425" y="261" type="curve" smooth="yes"/>
      <point x="294" y="385"/>
      <point x="232" y="546"/>
      <point x="232" y="708" type="curve" smooth="yes"/>
      <point x="232" y="882"/>
      <point x="296" y="1033"/>
      <point x="425" y="1155" type="curve" smooth="yes"/>
      <point x="548" y="1272"/>
      <point x="702" y="1339"/>
      <point x="880" y="1339" type="curve" smooth="yes"/>
      <point x="1052" y="1339"/>
      <point x="1224" y="1264"/>
      <point x="1344" y="1153" type="curve" smooth="yes"/>
      <point x="1473" y="1034"/>
      <point x="1530" y="874"/>
      <point x="1530" y="708" type="curve" smooth="yes"/>
      <point x="1530" y="522"/>
      <point x="1471" y="380"/>
      <point x="1344" y="263" type="curve" smooth="yes"/>
      <point x="1222" y="150"/>
      <point x="1057" y="77"/>
    </contour>
  </outline>
</glyph>
<glyph name="plusminus" format="2">
  <advance width="1081"/>
  <unicode hex="00B1"/>
  <note>
plusminus
</note>
  <outline>
    <contour>
      <point x="420" y="354" type="line"/>
      <point x="499" y="354" type="line"/>
      <point x="499" y="629" type="line"/>
      <point x="774" y="629" type="line"/>
      <point x="774" y="708" type="line"/>
      <point x="499" y="708" type="line"/>
      <point x="499" y="984" type="line"/>
      <point x="420" y="984" type="line"/>
      <point x="420" y="708" type="line"/>
      <point x="144" y="708" type="line"/>
      <point x="144" y="629" type="line"/>
      <point x="420" y="629" type="line"/>
    </contour>
    <contour>
      <point x="144" y="229" type="line"/>
      <point x="774" y="229" type="line"/>
      <point x="774" y="308" type="line"/>
      <point x="144" y="308" type="line"/>
    </contour>
  </outline>
</glyph>
<glyph name="divide" format="2">
  <advance width="1081"/>
  <unicode hex="00F7"/>
  <note>
divide
</note>
  <outline>
    <contour>
      <point x="135" y="630" type="line"/>
      <point x="940" y="630" type="line"/>
      <point x="940" y="709" type="line"/>
      <point x="135" y="709" type="line"/>
    </contour>
    <contour>
      <point x="537" y="301" type="curve" smooth="yes"/>
      <point x="591" y="301"/>
      <point x="627" y="337"/>
      <point x="627" y="391" type="curve" smooth="yes"/>
      <point x="627" y="444"/>
      <point x="591" y="480"/>
      <point x="537" y="480" type="curve" smooth="yes"/>
      <point x="484" y="480"/>
      <point x="448" y="444"/>
      <point x="448" y="391" type="curve" smooth="yes"/>
      <point x="448" y="338"/>
      <point x="484" y="301"/>
    </contour>
    <contour>
      <point x="537" y="832" type="curve" smooth="yes"/>
      <point x="591" y="832"/>
      <point x="627" y="868"/>
      <point x="627" y="922" type="curve" smooth="yes"/>
      <point x="627" y="975"/>
      <point x="591" y="1011"/>
      <point x="537" y="1011" type="curve" smooth="yes"/>
      <point x="484" y="1011"/>
      <point x="448" y="975"/>
      <point x="448" y="922" type="curve" smooth="yes"/>
      <point x="448" y="868"/>
      <point x="483" y="832"/>
    </contour>
  </outline>
</glyph>
<glyph name="idotless" format="2">
  <advance width="304"/>
  <unicode hex="0131"/>
  <note>
dotlessi
</note>
  <anchor x="152" y="-20" name="bottom"/>
  <anchor x="151" y="0" name="ogonek"/>
  <anchor x="152" y="989" name="top"/>
  <outline>
    <contour>
      <point x="109" y="0" type="line"/>
      <point x="195" y="0" type="line"/>
      <point x="195" y="990" type="line"/>
      <point x="109" y="990" type="line"/>
    </contour>
  </outline>
</glyph>
<glyph name="kgreenlandic" format="2">
  <advance width="958"/>
  <unicode hex="0138"/>
  <anchor x="479" y="-20" name="bottom"/>
  <anchor x="479" y="989" name="top"/>
  <outline>
    <contour>
      <point x="109" y="0" type="line"/>
      <point x="195" y="0" type="line"/>
      <point x="195" y="990" type="line"/>
      <point x="109" y="990" type="line"/>
    </contour>
    <contour>
      <point x="753" y="0" type="line"/>
      <point x="884" y="0" type="line"/>
      <point x="307" y="622" type="line"/>
      <point x="244" y="549" type="line"/>
    </contour>
    <contour>
      <point x="187" y="400" type="line"/>
      <point x="791" y="989" type="line"/>
      <point x="675" y="989" type="line"/>
      <point x="125" y="453" type="line"/>
    </contour>
  </outline>
</glyph>
<glyph name="lslash" format="2">
  <advance width="731"/>
  <unicode hex="0142"/>
  <outline>
    <contour>
      <point x="324" y="0" type="line"/>
      <point x="410" y="0" type="line"/>
      <point x="410" y="1514" type="line"/>
      <point x="324" y="1514" type="line"/>
    </contour>
    <contour>
      <point x="119" y="562" type="line"/>
      <point x="656" y="879" type="line"/>
      <point x="612" y="950" type="line"/>
      <point x="75" y="633" type="line"/>
    </contour>
  </outline>
</glyph>
<glyph name="eng" format="2">
  <advance width="994"/>
  <unicode hex="014B"/>
  <outline>
    <contour>
      <point x="714" y="-418" type="curve" smooth="yes"/>
      <point x="905" y="-418"/>
      <point x="894" y="-197"/>
      <point x="894" y="0" type="curve" smooth="yes"/>
      <point x="894" y="587" type="line" smooth="yes"/>
      <point x="894" y="874"/>
      <point x="776" y="1016"/>
      <point x="535" y="1016" type="curve" smooth="yes"/>
      <point x="362" y="1016"/>
      <point x="237" y="925"/>
      <point x="189" y="770" type="curve"/>
      <point x="195" y="761" type="line"/>
      <point x="195" y="990" type="line"/>
      <point x="109" y="990" type="line"/>
      <point x="109" y="0" type="line"/>
      <point x="195" y="0" type="line"/>
      <point x="195" y="571" type="line" smooth="yes"/>
      <point x="195" y="796"/>
      <point x="320" y="935"/>
      <point x="522" y="935" type="curve" smooth="yes"/>
      <point x="722" y="935"/>
      <point x="808" y="827"/>
      <point x="808" y="580" type="curve" smooth="yes"/>
      <point x="808" y="0" type="line" smooth="yes"/>
      <point x="808" y="-260"/>
      <point x="796" y="-336"/>
      <point x="706" y="-336" type="curve" smooth="yes"/>
      <point x="651" y="-336"/>
      <point x="617" y="-307"/>
      <point x="617" y="-246" type="curve" smooth="yes"/>
      <point x="617" y="-235"/>
      <point x="618" y="-227"/>
      <point x="621" y="-208" type="curve"/>
      <point x="542" y="-208" type="line"/>
      <point x="539" y="-219"/>
      <point x="536" y="-232"/>
      <point x="536" y="-252" type="curve" smooth="yes"/>
      <point x="536" y="-363"/>
      <point x="618" y="-418"/>
    </contour>
  </outline>
</glyph>
<glyph name="hookabovecomb" format="2">
  <unicode hex="0309"/>
  <anchor x="242" y="949" name="_top"/>
  <anchor x="242" y="1462" name="top"/>
  <outline>
    <contour>
      <point x="197" y="1133" type="line"/>
      <point x="308" y="1139"/>
      <point x="385" y="1205"/>
      <point x="385" y="1295" type="curve" smooth="yes"/>
      <point x="385" y="1378"/>
      <point x="325" y="1442"/>
      <point x="234" y="1442" type="curve" smooth="yes"/>
      <point x="182" y="1442"/>
      <point x="120" y="1428"/>
      <point x="98" y="1344" type="curve"/>
      <point x="137" y="1334" type="line"/>
      <point x="162" y="1355"/>
      <point x="165" y="1378"/>
      <point x="235" y="1378" type="curve" smooth="yes"/>
      <point x="298" y="1378"/>
      <point x="323" y="1335"/>
      <point x="323" y="1295" type="curve" smooth="yes"/>
      <point x="323" y="1250"/>
      <point x="290" y="1212"/>
      <point x="197" y="1199" type="curve"/>
    </contour>
    <contour>
      <point x="197" y="1059" type="line"/>
      <point x="259" y="1059" type="line"/>
      <point x="259" y="1191" type="line"/>
      <point x="197" y="1191" type="line"/>
    </contour>
  </outline>
</glyph>
<glyph name="horncomb" format="2">
  <unicode hex="031B"/>
  <anchor x="380" y="1209" name="_topright"/>
  <anchor x="343" y="1296" name="topright"/>
  <outline>
    <contour>
      <point x="323" y="1296" type="curve"/>
      <point x="247" y="1296" type="line"/>
      <point x="248" y="1204"/>
      <point x="209" y="1144"/>
      <point x="100" y="1146" type="curve"/>
      <point x="100" y="1075" type="line"/>
      <point x="242" y="1074"/>
      <point x="322" y="1153"/>
    </contour>
  </outline>
</glyph>
<glyph name="ogonekcomb" format="2">
  <unicode hex="0328"/>
  <anchor x="289" y="0" name="_ogonek"/>
  <outline>
    <contour>
      <point x="181" y="-358" type="curve" smooth="yes"/>
      <point x="211" y="-358"/>
      <point x="285" y="-352"/>
      <point x="350" y="-321" type="curve"/>
      <point x="350" y="-254" type="line"/>
      <point x="304" y="-273"/>
      <point x="258" y="-296"/>
      <point x="211" y="-296" type="curve" smooth="yes"/>
      <point x="151" y="-296"/>
      <point x="124" y="-254"/>
      <point x="124" y="-196" type="curve" smooth="yes"/>
      <point x="124" y="-107"/>
      <point x="188" y="-55"/>
      <point x="333" y="0" type="curve"/>
      <point x="245" y="0" type="line" smooth="yes"/>
      <point x="217" y="0"/>
      <point x="35" y="-69"/>
      <point x="35" y="-216" type="curve" smooth="yes"/>
      <point x="35" y="-288"/>
      <point x="78" y="-358"/>
    </contour>
  </outline>
</glyph>
<glyph name="slashshortcomb" format="2">
  <unicode hex="0337"/>
  <anchor x="287" y="710.5" name="_center"/>
  <outline>
    <contour>
      <point x="51" y="529" type="line"/>
      <point x="566" y="826" type="line"/>
      <point x="524" y="892" type="line"/>
      <point x="8" y="594" type="line"/>
    </contour>
  </outline>
</glyph>
<glyph name="Dje-cy" format="2">
  <advance width="1474"/>
  <unicode hex="0402"/>
  <outline>
    <contour>
      <point x="903" y="-25" type="line"/>
      <point x="1200" y="-25"/>
      <point x="1362" y="130"/>
      <point x="1362" y="422" type="curve" smooth="yes"/>
      <point x="1362" y="678"/>
      <point x="1233" y="832"/>
      <point x="1003" y="832" type="curve" smooth="yes"/>
      <point x="829" y="832"/>
      <point x="636" y="744"/>
      <point x="563" y="572" type="curve"/>
      <point x="563" y="1430" type="line"/>
      <point x="480" y="1430" type="line"/>
      <point x="480" y="0" type="line"/>
      <point x="563" y="0" type="line"/>
      <point x="563" y="387" type="line" smooth="yes"/>
      <point x="563" y="612"/>
      <point x="792" y="753"/>
      <point x="989" y="753" type="curve" smooth="yes"/>
      <point x="1184" y="753"/>
      <point x="1279" y="622"/>
      <point x="1279" y="416" type="curve" smooth="yes"/>
      <point x="1279" y="172"/>
      <point x="1146" y="54"/>
      <point x="909" y="54" type="curve"/>
    </contour>
    <contour>
      <point x="72" y="1353" type="line"/>
      <point x="973" y="1353" type="line"/>
      <point x="973" y="1430" type="line"/>
      <point x="72" y="1430" type="line"/>
    </contour>
  </outline>
</glyph>
<glyph name="Lje-cy" format="2">
  <advance width="2093"/>
  <unicode hex="0409"/>
  <outline>
    <contour>
      <point x="1206" y="77" type="line"/>
      <point x="1187" y="0" type="line"/>
      <point x="1495" y="0" type="line" smooth="yes"/>
      <point x="1665" y="0"/>
      <point x="1791" y="35"/>
      <point x="1874" y="106" type="curve" smooth="yes"/>
      <point x="1955" y="176"/>
      <point x="1997" y="289"/>
      <point x="1997" y="449" type="curve" smooth="yes"/>
      <point x="1997" y="609"/>
      <point x="1956" y="723"/>
      <point x="1874" y="792" type="curve" smooth="yes"/>
      <point x="1790" y="862"/>
      <point x="1665" y="898"/>
      <point x="1495" y="898" type="curve" smooth="yes"/>
      <point x="1193" y="898" type="line"/>
      <point x="1206" y="821" type="line"/>
      <point x="1451" y="821" type="line" smooth="yes"/>
      <point x="1771" y="821"/>
      <point x="1908" y="708"/>
      <point x="1908" y="449" type="curve" smooth="yes"/>
      <point x="1908" y="190"/>
      <point x="1771" y="77"/>
      <point x="1451" y="77" type="curve" smooth="yes"/>
    </contour>
    <contour>
      <point x="515" y="1430" type="line"/>
      <point x="519" y="1149"/>
      <point x="524" y="671"/>
      <point x="444" y="376" type="curve" smooth="yes"/>
      <point x="387" y="166"/>
      <point x="291" y="78"/>
      <point x="165" y="78" type="curve" smooth="yes"/>
      <point x="106" y="78" type="line"/>
      <point x="106" y="0" type="line"/>
      <point x="148" y="0" type="line" smooth="yes"/>
      <point x="321" y="0"/>
      <point x="442" y="116"/>
      <point x="508" y="350" type="curve" smooth="yes"/>
      <point x="595" y="656"/>
      <point x="593" y="1149"/>
      <point x="592" y="1370" type="curve"/>
      <point x="552" y="1353" type="line"/>
      <point x="1185" y="1353" type="line"/>
      <point x="1145" y="1393" type="line"/>
      <point x="1145" y="1" type="line"/>
      <point x="1228" y="1" type="line"/>
      <point x="1228" y="1430" type="line"/>
    </contour>
  </outline>
</glyph>
<glyph name="Nje-cy" format="2">
  <advance width="2027"/>
  <unicode hex="040A"/>
  <outline>
    <contour>
      <point x="143" y="0" type="line"/>
      <point x="232" y="0" type="line"/>
      <point x="232" y="750" type="line"/>
      <point x="166" y="693" type="line"/>
      <point x="1171" y="693" type="line"/>
      <point x="1122" y="750" type="line"/>
      <point x="1122" y="0" type="line"/>
      <point x="1210" y="0" type="line"/>
      <point x="1210" y="1430" type="line"/>
      <point x="1122" y="1430" type="line"/>
      <point x="1122" y="713" type="line"/>
      <point x="1171" y="770" type="line"/>
      <point x="166" y="770" type="line"/>
      <point x="232" y="713" type="line"/>
      <point x="232" y="1430" type="line"/>
      <point x="143" y="1430" type="line"/>
    </contour>
    <contour>
      <point x="1140" y="77" type="line"/>
      <point x="1121" y="0" type="line"/>
      <point x="1429" y="0" type="line" smooth="yes"/>
      <point x="1599" y="0"/>
      <point x="1725" y="35"/>
      <point x="1808" y="106" type="curve" smooth="yes"/>
      <point x="1889" y="176"/>
      <point x="1931" y="289"/>
      <point x="1931" y="449" type="curve" smooth="yes"/>
      <point x="1931" y="609"/>
      <point x="1890" y="723"/>
      <point x="1808" y="792" type="curve" smooth="yes"/>
      <point x="1724" y="862"/>
      <point x="1599" y="898"/>
      <point x="1429" y="898" type="curve" smooth="yes"/>
      <point x="1127" y="898" type="line"/>
      <point x="1140" y="821" type="line"/>
      <point x="1385" y="821" type="line" smooth="yes"/>
      <point x="1705" y="821"/>
      <point x="1842" y="708"/>
      <point x="1842" y="449" type="curve" smooth="yes"/>
      <point x="1842" y="190"/>
      <point x="1705" y="77"/>
      <point x="1385" y="77" type="curve" smooth="yes"/>
    </contour>
  </outline>
</glyph>
<glyph name="Tshe-cy" format="2">
  <advance width="1474"/>
  <unicode hex="040B"/>
  <outline>
    <contour>
      <point x="563" y="1430" type="line"/>
      <point x="480" y="1430" type="line"/>
      <point x="480" y="0" type="line"/>
      <point x="563" y="0" type="line"/>
      <point x="563" y="387" type="line" smooth="yes"/>
      <point x="563" y="612"/>
      <point x="792" y="753"/>
      <point x="989" y="753" type="curve" smooth="yes"/>
      <point x="1184" y="753"/>
      <point x="1279" y="615"/>
      <point x="1279" y="436" type="curve" smooth="yes"/>
      <point x="1279" y="0" type="line"/>
      <point x="1362" y="0" type="line"/>
      <point x="1362" y="442" type="line" smooth="yes"/>
      <point x="1362" y="666"/>
      <point x="1237" y="832"/>
      <point x="1003" y="832" type="curve" smooth="yes"/>
      <point x="804" y="832"/>
      <point x="568" y="711"/>
      <point x="537" y="476" type="curve"/>
      <point x="563" y="486" type="line"/>
    </contour>
    <contour>
      <point x="72" y="1353" type="line"/>
      <point x="973" y="1353" type="line"/>
      <point x="973" y="1430" type="line"/>
      <point x="72" y="1430" type="line"/>
    </contour>
  </outline>
</glyph>
<glyph name="De-cy" format="2">
  <advance width="1512"/>
  <unicode hex="0414"/>
  <outline>
    <contour>
      <point x="83" y="0" type="line"/>
      <point x="1421" y="0" type="line"/>
      <point x="1421" y="77" type="line"/>
      <point x="1205" y="77" type="line"/>
      <point x="1251" y="17" type="line"/>
      <point x="1251" y="1430" type="line"/>
      <point x="478" y="1430" type="line"/>
      <point x="478" y="1353" type="line"/>
      <point x="1214" y="1353" type="line"/>
      <point x="1168" y="1409" type="line"/>
      <point x="1168" y="17" type="line"/>
      <point x="1214" y="77" type="line"/>
      <point x="83" y="77" type="line"/>
    </contour>
    <contour>
      <point x="292" y="45" type="line"/>
      <point x="600" y="111"/>
      <point x="555" y="640"/>
      <point x="554" y="1401" type="curve"/>
      <point x="478" y="1401" type="line"/>
      <point x="481" y="642"/>
      <point x="537" y="124"/>
      <point x="198" y="65" type="curve"/>
    </contour>
    <component base="_cyrillicdescender01.case" xOffset="1406"/>
    <component base="_cyrillicdescender01.case" xScale="-1" xOffset="106"/>
  </outline>
</glyph>
<glyph name="Ii-cy" format="2">
  <advance width="1525"/>
  <unicode hex="0418"/>
  <anchor x="762" y="-20" name="bottom"/>
  <anchor x="1505" y="0" name="bottomright"/>
  <anchor x="763" y="1430" name="top"/>
  <outline>
    <contour>
      <point x="1382" y="0" type="line"/>
      <point x="1382" y="1430" type="line"/>
      <point x="1256" y="1430" type="line"/>
      <point x="206" y="91" type="line"/>
      <point x="226" y="49" type="line"/>
      <point x="226" y="1430" type="line"/>
      <point x="143" y="1430" type="line"/>
      <point x="143" y="0" type="line"/>
      <point x="259" y="0" type="line"/>
      <point x="1331" y="1359" type="line"/>
      <point x="1299" y="1381" type="line"/>
      <point x="1299" y="0" type="line"/>
    </contour>
  </outline>
</glyph>
<glyph name="Che-cy" format="2">
  <advance width="1147"/>
  <unicode hex="0427"/>
  <anchor x="1147" y="0" name="bottomright"/>
  <anchor x="574" y="1430" name="top"/>
  <outline>
    <contour>
      <point x="918" y="0" type="line"/>
      <point x="1001" y="0" type="line"/>
      <point x="1001" y="1430" type="line"/>
      <point x="918" y="1430" type="line"/>
      <point x="918" y="1043" type="line" smooth="yes"/>
      <point x="918" y="818"/>
      <point x="689" y="677"/>
      <point x="492" y="677" type="curve" smooth="yes"/>
      <point x="297" y="677"/>
      <point x="202" y="815"/>
      <point x="202" y="994" type="curve" smooth="yes"/>
      <point x="202" y="1430" type="line"/>
      <point x="119" y="1430" type="line"/>
      <point x="119" y="988" type="line" smooth="yes"/>
      <point x="119" y="764"/>
      <point x="244" y="598"/>
      <point x="478" y="598" type="curve" smooth="yes"/>
      <point x="677" y="598"/>
      <point x="913" y="719"/>
      <point x="944" y="954" type="curve"/>
      <point x="918" y="944" type="line"/>
    </contour>
  </outline>
</glyph>
<glyph name="Softsign-cy" format="2">
  <advance width="1068"/>
  <unicode hex="042C"/>
  <outline>
    <contour>
      <point x="178" y="0" type="line"/>
      <point x="470" y="0" type="line" smooth="yes"/>
      <point x="640" y="0"/>
      <point x="766" y="35"/>
      <point x="849" y="106" type="curve" smooth="yes"/>
      <point x="930" y="176"/>
      <point x="972" y="289"/>
      <point x="972" y="449" type="curve" smooth="yes"/>
      <point x="972" y="609"/>
      <point x="931" y="723"/>
      <point x="849" y="792" type="curve" smooth="yes"/>
      <point x="765" y="862"/>
      <point x="640" y="898"/>
      <point x="470" y="898" type="curve" smooth="yes"/>
      <point x="184" y="898" type="line"/>
      <point x="261" y="849" type="line"/>
      <point x="261" y="1430" type="line"/>
      <point x="178" y="1430" type="line"/>
    </contour>
    <contour>
      <point x="261" y="16" type="line"/>
      <point x="261" y="882" type="line"/>
      <point x="197" y="821" type="line"/>
      <point x="426" y="821" type="line" smooth="yes"/>
      <point x="746" y="821"/>
      <point x="883" y="708"/>
      <point x="883" y="449" type="curve" smooth="yes"/>
      <point x="883" y="190"/>
      <point x="746" y="77"/>
      <point x="426" y="77" type="curve" smooth="yes"/>
      <point x="197" y="77" type="line"/>
    </contour>
  </outline>
</glyph>
<glyph name="be-cy" format="2">
  <advance width="1067"/>
  <unicode hex="0431"/>
  <guideline x="985" y="478" angle="270.0"/>
  <outline>
    <contour>
      <point x="534" y="-28" type="curve" smooth="yes"/>
      <point x="802" y="-28"/>
      <point x="983" y="169"/>
      <point x="983" y="458" type="curve" smooth="yes"/>
      <point x="983" y="752"/>
      <point x="796" y="967"/>
      <point x="534" y="967" type="curve" smooth="yes"/>
      <point x="408" y="967"/>
      <point x="302" y="918"/>
      <point x="223" y="835" type="curve"/>
      <point x="228" y="820" type="line"/>
      <point x="292" y="1042"/>
      <point x="362" y="1190"/>
      <point x="537" y="1240" type="curve" smooth="yes"/>
      <point x="621" y="1264"/>
      <point x="843" y="1273"/>
      <point x="965" y="1433" type="curve"/>
      <point x="855" y="1444" type="line"/>
      <point x="806" y="1368"/>
      <point x="591" y="1330"/>
      <point x="537" y="1322" type="curve" smooth="yes"/>
      <point x="245" y="1281"/>
      <point x="87" y="902"/>
      <point x="87" y="458" type="curve" smooth="yes"/>
      <point x="87" y="169"/>
      <point x="267" y="-28"/>
    </contour>
    <contour>
      <point x="534" y="54" type="curve" smooth="yes"/>
      <point x="319" y="54"/>
      <point x="184" y="209"/>
      <point x="184" y="467" type="curve" smooth="yes"/>
      <point x="184" y="721"/>
      <point x="324" y="885"/>
      <point x="534" y="885" type="curve" smooth="yes"/>
      <point x="743" y="885"/>
      <point x="884" y="716"/>
      <point x="884" y="458" type="curve" smooth="yes"/>
      <point x="884" y="204"/>
      <point x="752" y="54"/>
    </contour>
  </outline>
</glyph>
<glyph name="ve-cy" format="2">
  <advance width="897"/>
  <unicode hex="0432"/>
  <outline>
    <contour>
      <point x="109" y="0" type="line"/>
      <point x="435" y="0" type="line" smooth="yes"/>
      <point x="674" y="0"/>
      <point x="816" y="115"/>
      <point x="816" y="285" type="curve" smooth="yes"/>
      <point x="816" y="427"/>
      <point x="718" y="531"/>
      <point x="591" y="552" type="curve"/>
      <point x="596" y="493" type="line"/>
      <point x="711" y="532"/>
      <point x="777" y="613"/>
      <point x="777" y="724" type="curve" smooth="yes"/>
      <point x="777" y="883"/>
      <point x="643" y="990"/>
      <point x="440" y="990" type="curve" smooth="yes"/>
      <point x="109" y="990" type="line"/>
    </contour>
    <contour>
      <point x="199" y="9" type="line"/>
      <point x="199" y="546" type="line"/>
      <point x="159" y="485" type="line"/>
      <point x="461" y="485" type="line" smooth="yes"/>
      <point x="617" y="485"/>
      <point x="720" y="398"/>
      <point x="720" y="290" type="curve" smooth="yes"/>
      <point x="720" y="167"/>
      <point x="588" y="80"/>
      <point x="403" y="80" type="curve" smooth="yes"/>
      <point x="143" y="80" type="line"/>
    </contour>
    <contour>
      <point x="199" y="500" type="line"/>
      <point x="199" y="980" type="line"/>
      <point x="110" y="910" type="line"/>
      <point x="428" y="910" type="line" smooth="yes"/>
      <point x="578" y="910"/>
      <point x="682" y="836"/>
      <point x="682" y="717" type="curve" smooth="yes"/>
      <point x="682" y="603"/>
      <point x="588" y="562"/>
      <point x="444" y="562" type="curve" smooth="yes"/>
      <point x="153" y="562" type="line"/>
    </contour>
  </outline>
</glyph>
<glyph name="de-cy" format="2">
  <advance width="1209"/>
  <unicode hex="0434"/>
  <outline>
    <contour>
      <point x="94" y="0" type="line"/>
      <point x="1096" y="0" type="line"/>
      <point x="1096" y="78" type="line"/>
      <point x="904" y="78" type="line"/>
      <point x="964" y="14" type="line"/>
      <point x="964" y="990" type="line"/>
      <point x="342" y="990" type="line"/>
      <point x="342" y="911" type="line"/>
      <point x="941" y="911" type="line"/>
      <point x="877" y="972" type="line"/>
      <point x="877" y="14" type="line"/>
      <point x="941" y="80" type="line"/>
      <point x="94" y="80" type="line"/>
    </contour>
    <contour>
      <point x="223" y="47" type="line"/>
      <point x="462" y="24"/>
      <point x="405" y="375"/>
      <point x="407" y="966" type="curve"/>
      <point x="342" y="965" type="line"/>
      <point x="341" y="379"/>
      <point x="408" y="34"/>
      <point x="138" y="63" type="curve"/>
    </contour>
    <component base="_cyrillicdescender02" xOffset="860"/>
    <component base="_cyrillicdescender02" xScale="-1" xOffset="349"/>
  </outline>
</glyph>
<glyph name="ze-cy" format="2">
  <advance width="882"/>
  <unicode hex="0437"/>
  <anchor x="435" y="0" name="bottom"/>
  <anchor x="435" y="990" name="top"/>
  <outline>
    <contour>
      <point x="434" y="-22" type="curve" smooth="yes"/>
      <point x="657" y="-22"/>
      <point x="799" y="77"/>
      <point x="799" y="278" type="curve" smooth="yes"/>
      <point x="799" y="458"/>
      <point x="717" y="513"/>
      <point x="531" y="540" type="curve"/>
      <point x="336" y="474" type="line"/>
      <point x="636" y="484"/>
      <point x="765" y="544"/>
      <point x="765" y="747" type="curve" smooth="yes"/>
      <point x="765" y="916"/>
      <point x="658" y="1008"/>
      <point x="462" y="1008" type="curve" smooth="yes"/>
      <point x="306" y="1008"/>
      <point x="226" y="956"/>
      <point x="172" y="875" type="curve"/>
      <point x="238" y="825" type="line"/>
      <point x="276" y="892"/>
      <point x="338" y="928"/>
      <point x="458" y="928" type="curve" smooth="yes"/>
      <point x="602" y="928"/>
      <point x="675" y="872"/>
      <point x="675" y="742" type="curve" smooth="yes"/>
      <point x="675" y="594"/>
      <point x="581" y="549"/>
      <point x="420" y="549" type="curve" smooth="yes"/>
      <point x="329" y="549" type="line"/>
      <point x="329" y="474" type="line"/>
      <point x="423" y="474" type="line" smooth="yes"/>
      <point x="596" y="474"/>
      <point x="698" y="439"/>
      <point x="698" y="278" type="curve" smooth="yes"/>
      <point x="698" y="135"/>
      <point x="595" y="57"/>
      <point x="440" y="57" type="curve" smooth="yes"/>
      <point x="270" y="57"/>
      <point x="216" y="130"/>
      <point x="171" y="228" type="curve"/>
      <point x="75" y="202" type="line"/>
      <point x="129" y="64"/>
      <point x="204" y="-22"/>
    </contour>
  </outline>
</glyph>
<glyph name="ii-cy" format="2">
  <advance width="1034"/>
  <unicode hex="0438"/>
  <anchor x="1014" y="0" name="bottomright"/>
  <anchor x="517" y="990" name="top"/>
  <outline>
    <contour>
      <point x="116" y="0" type="line"/>
      <point x="203" y="0" type="line"/>
      <point x="898" y="946" type="line"/>
      <point x="831" y="907" type="line"/>
      <point x="831" y="0" type="line"/>
      <point x="918" y="0" type="line"/>
      <point x="919" y="990" type="line"/>
      <point x="824" y="990" type="line"/>
      <point x="139" y="58" type="line"/>
      <point x="203" y="52" type="line"/>
      <point x="203" y="990" type="line"/>
      <point x="116" y="990" type="line"/>
    </contour>
  </outline>
</glyph>
<glyph name="ka-cy" format="2">
  <advance width="904"/>
  <unicode hex="043A"/>
  <anchor x="844" y="0" name="bottomright"/>
  <anchor x="452" y="990" name="top"/>
  <outline>
    <contour>
      <point x="101" y="0" type="line"/>
      <point x="188" y="0" type="line"/>
      <point x="188" y="990" type="line"/>
      <point x="101" y="990" type="line"/>
    </contour>
    <contour>
      <point x="237" y="447" type="line"/>
      <point x="787" y="990" type="line"/>
      <point x="677" y="990" type="line"/>
      <point x="167" y="484" type="line"/>
    </contour>
    <contour>
      <point x="676" y="0" type="line"/>
      <point x="814" y="0" type="line"/>
      <point x="259" y="508" type="line"/>
      <point x="167" y="467" type="line"/>
    </contour>
  </outline>
</glyph>
<glyph name="el-cy" format="2">
  <advance width="1056"/>
  <unicode hex="043B"/>
  <outline>
    <contour>
      <point x="860" y="0" type="line"/>
      <point x="947" y="0" type="line"/>
      <point x="947" y="990" type="line"/>
      <point x="376" y="990" type="line"/>
      <point x="376" y="910" type="line"/>
      <point x="919" y="910" type="line"/>
      <point x="860" y="973" type="line"/>
    </contour>
    <contour>
      <point x="77" y="0" type="line"/>
      <point x="120" y="0" type="line" smooth="yes"/>
      <point x="279" y="0"/>
      <point x="358" y="58"/>
      <point x="400" y="210" type="curve" smooth="yes"/>
      <point x="458" y="421"/>
      <point x="457" y="851"/>
      <point x="458" y="965" type="curve"/>
      <point x="376" y="965" type="line"/>
      <point x="376" y="886"/>
      <point x="383" y="445"/>
      <point x="329" y="241" type="curve" smooth="yes"/>
      <point x="286" y="79"/>
      <point x="190" y="79"/>
      <point x="120" y="79" type="curve" smooth="yes"/>
      <point x="77" y="79" type="line"/>
    </contour>
  </outline>
</glyph>
<glyph name="en-cy" format="2">
  <advance width="1059"/>
  <unicode hex="043D"/>
  <anchor x="1039" y="0" name="bottomright"/>
  <outline>
    <contour>
      <point x="109" y="0" type="line"/>
      <point x="197" y="0" type="line"/>
      <point x="197" y="533" type="line"/>
      <point x="111" y="466" type="line"/>
      <point x="935" y="466" type="line"/>
      <point x="863" y="533" type="line"/>
      <point x="863" y="0" type="line"/>
      <point x="950" y="0" type="line"/>
      <point x="950" y="990" type="line"/>
      <point x="863" y="990" type="line"/>
      <point x="863" y="480" type="line"/>
      <point x="935" y="547" type="line"/>
      <point x="111" y="547" type="line"/>
      <point x="197" y="480" type="line"/>
      <point x="197" y="990" type="line"/>
      <point x="109" y="990" type="line"/>
    </contour>
  </outline>
</glyph>
<glyph name="te-cy" format="2">
  <advance width="1021"/>
  <unicode hex="0442"/>
  <anchor x="1016" y="0" name="bottomright"/>
  <outline>
    <contour>
      <point x="466" y="0" type="line"/>
      <point x="555" y="0" type="line"/>
      <point x="555" y="977" type="line"/>
      <point x="416" y="900" type="line"/>
      <point x="944" y="900" type="line"/>
      <point x="944" y="990" type="line"/>
      <point x="77" y="990" type="line"/>
      <point x="77" y="900" type="line"/>
      <point x="605" y="900" type="line"/>
      <point x="466" y="977" type="line"/>
    </contour>
  </outline>
</glyph>
<glyph name="che-cy" format="2">
  <advance width="886"/>
  <unicode hex="0447"/>
  <anchor x="866" y="0" name="bottomright"/>
  <anchor x="443" y="990" name="top"/>
  <outline>
    <contour>
      <point x="690" y="0" type="line"/>
      <point x="777" y="0" type="line"/>
      <point x="777" y="990" type="line"/>
      <point x="691" y="990" type="line"/>
      <point x="691" y="655" type="line" smooth="yes"/>
      <point x="691" y="513"/>
      <point x="508" y="419"/>
      <point x="377" y="419" type="curve" smooth="yes"/>
      <point x="243" y="419"/>
      <point x="174" y="516"/>
      <point x="174" y="620" type="curve" smooth="yes"/>
      <point x="174" y="990" type="line"/>
      <point x="88" y="990" type="line"/>
      <point x="88" y="607" type="line" smooth="yes"/>
      <point x="88" y="461"/>
      <point x="185" y="337"/>
      <point x="360" y="337" type="curve" smooth="yes"/>
      <point x="501" y="337"/>
      <point x="687" y="419"/>
      <point x="718" y="574" type="curve"/>
      <point x="691" y="604" type="line"/>
    </contour>
  </outline>
</glyph>
<glyph name="sha-cy" format="2">
  <advance width="1217"/>
  <unicode hex="0448"/>
  <anchor x="1176" y="0" name="bottomright"/>
  <outline>
    <contour>
      <point x="109" y="0" type="line"/>
      <point x="1108" y="0" type="line"/>
      <point x="1108" y="990" type="line"/>
      <point x="1019" y="990" type="line"/>
      <point x="1019" y="81" type="line"/>
      <point x="199" y="81" type="line"/>
      <point x="199" y="990" type="line"/>
      <point x="109" y="990" type="line"/>
    </contour>
    <contour>
      <point x="563" y="0" type="line"/>
      <point x="649" y="0" type="line"/>
      <point x="649" y="990" type="line"/>
      <point x="563" y="990" type="line"/>
    </contour>
  </outline>
</glyph>
<glyph name="softsign-cy" format="2">
  <advance width="804"/>
  <unicode hex="044C"/>
  <outline>
    <contour>
      <point x="108" y="0" type="line"/>
      <point x="327" y="0" type="line" smooth="yes"/>
      <point x="590" y="0"/>
      <point x="721" y="74"/>
      <point x="721" y="319" type="curve" smooth="yes"/>
      <point x="721" y="563"/>
      <point x="592" y="640"/>
      <point x="323" y="640" type="curve" smooth="yes"/>
      <point x="121" y="640" type="line"/>
      <point x="195" y="591" type="line"/>
      <point x="195" y="990" type="line"/>
      <point x="107" y="990" type="line"/>
    </contour>
    <contour>
      <point x="195" y="14" type="line"/>
      <point x="195" y="627" type="line"/>
      <point x="139" y="560" type="line"/>
      <point x="286" y="560" type="line" smooth="yes"/>
      <point x="514" y="560"/>
      <point x="626" y="507"/>
      <point x="626" y="319" type="curve" smooth="yes"/>
      <point x="626" y="125"/>
      <point x="505" y="80"/>
      <point x="286" y="80" type="curve" smooth="yes"/>
      <point x="119" y="80" type="line"/>
    </contour>
  </outline>
</glyph>
<glyph name="ia-cy" format="2">
  <advance width="846"/>
  <unicode hex="044F"/>
  <anchor x="423" y="990" name="top"/>
  <outline>
    <contour>
      <point x="651" y="0" type="line"/>
      <point x="737" y="0" type="line"/>
      <point x="737" y="990" type="line"/>
      <point x="521" y="990" type="line" smooth="yes"/>
      <point x="316" y="990"/>
      <point x="125" y="953"/>
      <point x="125" y="709" type="curve" smooth="yes"/>
      <point x="125" y="535"/>
      <point x="222" y="454"/>
      <point x="406" y="415" type="curve"/>
      <point x="494" y="415" type="line"/>
      <point x="693" y="415" type="line"/>
      <point x="651" y="460" type="line"/>
    </contour>
    <contour>
      <point x="651" y="446" type="line"/>
      <point x="686" y="493" type="line"/>
      <point x="561" y="493" type="line" smooth="yes"/>
      <point x="341" y="493"/>
      <point x="221" y="523"/>
      <point x="221" y="708" type="curve" smooth="yes"/>
      <point x="221" y="888"/>
      <point x="335" y="912"/>
      <point x="561" y="912" type="curve" smooth="yes"/>
      <point x="706" y="912" type="line"/>
      <point x="651" y="959" type="line"/>
    </contour>
    <contour>
      <point x="77" y="0" type="curve"/>
      <point x="182" y="0" type="line"/>
      <point x="193" y="53"/>
      <point x="189" y="52"/>
      <point x="212" y="154" type="curve" smooth="yes"/>
      <point x="247" y="309"/>
      <point x="274" y="363"/>
      <point x="314" y="384" type="curve" smooth="yes"/>
      <point x="352" y="404"/>
      <point x="445" y="416"/>
      <point x="517" y="414" type="curve"/>
      <point x="268" y="459" type="line"/>
      <point x="254" y="445"/>
      <point x="240" y="450"/>
      <point x="214" y="428" type="curve" smooth="yes"/>
      <point x="194" y="411"/>
      <point x="162" y="393"/>
      <point x="123" y="213" type="curve" smooth="yes"/>
      <point x="116" y="180"/>
      <point x="94" y="73"/>
    </contour>
  </outline>
</glyph>
<glyph name="dje-cy" format="2">
  <advance width="1007"/>
  <unicode hex="0452"/>
  <outline>
    <contour>
      <point x="116" y="0" type="line"/>
      <point x="202" y="0" type="line"/>
      <point x="202" y="571" type="line" smooth="yes"/>
      <point x="202" y="796"/>
      <point x="327" y="935"/>
      <point x="528" y="935" type="curve" smooth="yes"/>
      <point x="729" y="935"/>
      <point x="815" y="827"/>
      <point x="815" y="580" type="curve" smooth="yes"/>
      <point x="815" y="0" type="line"/>
      <point x="901" y="0" type="line"/>
      <point x="901" y="586" type="line" smooth="yes"/>
      <point x="901" y="874"/>
      <point x="783" y="1016"/>
      <point x="542" y="1016" type="curve" smooth="yes"/>
      <point x="342" y="1016"/>
      <point x="207" y="895"/>
      <point x="176" y="660" type="curve"/>
      <point x="202" y="670" type="line"/>
      <point x="202" y="1514" type="line"/>
      <point x="116" y="1514" type="line"/>
    </contour>
    <contour>
      <point x="-24" y="1280" type="line"/>
      <point x="344" y="1280" type="line"/>
      <point x="344" y="1360" type="line"/>
      <point x="-24" y="1360" type="line"/>
    </contour>
    <contour>
      <point x="721" y="-558" type="curve" smooth="yes"/>
      <point x="912" y="-558"/>
      <point x="901" y="-337"/>
      <point x="901" y="-140" type="curve" smooth="yes"/>
      <point x="901" y="390" type="line"/>
      <point x="815" y="390" type="line"/>
      <point x="815" y="-140" type="line" smooth="yes"/>
      <point x="815" y="-400"/>
      <point x="803" y="-476"/>
      <point x="713" y="-476" type="curve" smooth="yes"/>
      <point x="658" y="-476"/>
      <point x="624" y="-447"/>
      <point x="624" y="-386" type="curve" smooth="yes"/>
      <point x="624" y="-375"/>
      <point x="625" y="-367"/>
      <point x="628" y="-348" type="curve"/>
      <point x="549" y="-348" type="line"/>
      <point x="546" y="-359"/>
      <point x="543" y="-372"/>
      <point x="543" y="-392" type="curve" smooth="yes"/>
      <point x="543" y="-503"/>
      <point x="625" y="-558"/>
    </contour>
  </outline>
</glyph>
<glyph name="yat-cy" format="2">
  <advance width="913"/>
  <unicode hex="0463"/>
  <anchor x="261" y="1109" name="center"/>
  <outline>
    <contour>
      <point x="217" y="0" type="line"/>
      <point x="436" y="0" type="line" smooth="yes"/>
      <point x="699" y="0"/>
      <point x="830" y="74"/>
      <point x="830" y="319" type="curve" smooth="yes"/>
      <point x="830" y="563"/>
      <point x="701" y="640"/>
      <point x="432" y="640" type="curve" smooth="yes"/>
      <point x="230" y="640" type="line"/>
      <point x="304" y="591" type="line"/>
      <point x="304" y="1514" type="line"/>
      <point x="216" y="1514" type="line"/>
    </contour>
    <contour>
      <point x="304" y="14" type="line"/>
      <point x="304" y="627" type="line"/>
      <point x="248" y="560" type="line"/>
      <point x="395" y="560" type="line" smooth="yes"/>
      <point x="623" y="560"/>
      <point x="735" y="507"/>
      <point x="735" y="319" type="curve" smooth="yes"/>
      <point x="735" y="125"/>
      <point x="614" y="80"/>
      <point x="395" y="80" type="curve" smooth="yes"/>
      <point x="228" y="80" type="line"/>
    </contour>
    <component base="_cyrillic_bar" xOffset="77" yOffset="376"/>
  </outline>
</glyph>
<glyph name="Fita-cy" format="2">
  <advance width="1560"/>
  <unicode hex="0472"/>
  <anchor x="780" y="-20" name="bottom"/>
  <anchor x="780" y="715" name="center"/>
  <anchor x="860" y="0" name="ogonek"/>
  <anchor x="780" y="1430" name="top"/>
  <anchor x="-5" y="1430" name="topleft"/>
  <anchor x="1395" y="1430" name="topright"/>
  <outline>
    <contour>
      <point x="1022" y="639" type="curve" smooth="yes"/>
      <point x="1215" y="639"/>
      <point x="1330" y="674"/>
      <point x="1371" y="753" type="curve"/>
      <point x="1371" y="752" type="line"/>
      <point x="1313" y="743"/>
      <point x="1240" y="717"/>
      <point x="1157" y="717" type="curve" smooth="yes"/>
      <point x="772" y="717"/>
      <point x="771" y="795"/>
      <point x="542" y="795" type="curve" smooth="yes"/>
      <point x="349" y="795"/>
      <point x="233" y="759"/>
      <point x="191" y="679" type="curve"/>
      <point x="191" y="677" type="line"/>
      <point x="261" y="688"/>
      <point x="355" y="713"/>
      <point x="474" y="713" type="curve" smooth="yes"/>
      <point x="649" y="713"/>
      <point x="788" y="639"/>
    </contour>
    <component base="O"/>
  </outline>
</glyph>
<glyph name="Izhitsa-cy" format="2">
  <advance width="1682"/>
  <unicode hex="0474"/>
  <anchor x="841" y="1430" name="top"/>
  <outline>
    <contour>
      <point x="738" y="-36" type="line"/>
      <point x="1317" y="1300" type="line" smooth="yes"/>
      <point x="1338" y="1348"/>
      <point x="1368" y="1364"/>
      <point x="1411" y="1364" type="curve" smooth="yes"/>
      <point x="1466" y="1364"/>
      <point x="1494" y="1339"/>
      <point x="1494" y="1300" type="curve" smooth="yes"/>
      <point x="1494" y="1282"/>
      <point x="1488" y="1261"/>
      <point x="1482" y="1243" type="curve"/>
      <point x="1561" y="1243" type="line"/>
      <point x="1566" y="1251"/>
      <point x="1576" y="1280"/>
      <point x="1576" y="1308" type="curve" smooth="yes"/>
      <point x="1576" y="1387"/>
      <point x="1494" y="1444"/>
      <point x="1397" y="1444" type="curve" smooth="yes"/>
      <point x="1265" y="1444"/>
      <point x="1245" y="1339"/>
      <point x="1175" y="1178" type="curve" smooth="yes"/>
      <point x="720" y="130" type="line"/>
      <point x="752" y="130" type="line"/>
      <point x="190" y="1430" type="line"/>
      <point x="105" y="1430" type="line"/>
    </contour>
  </outline>
</glyph>
<glyph name="dagger" format="2">
  <advance width="1090"/>
  <unicode hex="2020"/>
  <note>
dagger
</note>
  <outline>
    <contour>
      <point x="545" y="-300" type="curve" smooth="yes"/>
      <point x="571" y="-300"/>
      <point x="590" y="-263"/>
      <point x="590" y="-213" type="curve" smooth="yes"/>
      <point x="590" y="700" type="line" smooth="yes"/>
      <point x="590" y="820"/>
      <point x="578" y="984"/>
      <point x="570" y="976" type="curve" smooth="yes"/>
      <point x="562" y="968"/>
      <point x="704" y="956"/>
      <point x="868" y="956" type="curve" smooth="yes"/>
      <point x="918" y="956"/>
      <point x="955" y="969"/>
      <point x="955" y="986" type="curve" smooth="yes"/>
      <point x="955" y="1003"/>
      <point x="918" y="1016"/>
      <point x="868" y="1016" type="curve" smooth="yes"/>
      <point x="689" y="1016"/>
      <point x="560" y="1006"/>
      <point x="570" y="996" type="curve" smooth="yes"/>
      <point x="580" y="986"/>
      <point x="590" y="1132"/>
      <point x="590" y="1277" type="curve" smooth="yes"/>
      <point x="590" y="1327"/>
      <point x="571" y="1364"/>
      <point x="545" y="1364" type="curve" smooth="yes"/>
      <point x="519" y="1364"/>
      <point x="500" y="1327"/>
      <point x="500" y="1277" type="curve" smooth="yes"/>
      <point x="500" y="1132"/>
      <point x="510" y="986"/>
      <point x="520" y="996" type="curve" smooth="yes"/>
      <point x="530" y="1006"/>
      <point x="401" y="1016"/>
      <point x="222" y="1016" type="curve" smooth="yes"/>
      <point x="172" y="1016"/>
      <point x="135" y="1003"/>
      <point x="135" y="986" type="curve" smooth="yes"/>
      <point x="135" y="969"/>
      <point x="172" y="956"/>
      <point x="222" y="956" type="curve" smooth="yes"/>
      <point x="386" y="956"/>
      <point x="528" y="968"/>
      <point x="520" y="976" type="curve" smooth="yes"/>
      <point x="512" y="984"/>
      <point x="500" y="820"/>
      <point x="500" y="700" type="curve" smooth="yes"/>
      <point x="500" y="-213" type="line" smooth="yes"/>
      <point x="500" y="-263"/>
      <point x="519" y="-300"/>
    </contour>
  </outline>
</glyph>
<glyph name="franc" format="2">
  <advance width="1453"/>
  <unicode hex="20A3"/>
  <note>
franc
</note>
  <outline>
    <contour>
      <point x="185" y="0" type="line"/>
      <point x="273" y="0" type="line"/>
      <point x="273" y="769" type="line"/>
      <point x="190" y="689" type="line"/>
      <point x="787" y="689" type="line"/>
      <point x="787" y="766" type="line"/>
      <point x="195" y="766" type="line"/>
      <point x="273" y="693" type="line"/>
      <point x="273" y="1419" type="line"/>
      <point x="212" y="1353" type="line"/>
      <point x="787" y="1353" type="line"/>
      <point x="787" y="1430" type="line"/>
      <point x="185" y="1430" type="line"/>
    </contour>
    <contour>
      <point x="701" y="0" type="line"/>
      <point x="787" y="0" type="line"/>
      <point x="787" y="407" type="line" smooth="yes"/>
      <point x="787" y="588"/>
      <point x="907" y="721"/>
      <point x="1060" y="721" type="curve" smooth="yes"/>
      <point x="1168" y="721"/>
      <point x="1220" y="683"/>
      <point x="1220" y="598" type="curve" smooth="yes"/>
      <point x="1220" y="598"/>
      <point x="1220" y="543"/>
      <point x="1212" y="520" type="curve"/>
      <point x="1293" y="504" type="line"/>
      <point x="1298" y="525"/>
      <point x="1302" y="580"/>
      <point x="1302" y="612" type="curve" smooth="yes"/>
      <point x="1302" y="770"/>
      <point x="1180" y="811"/>
      <point x="1074" y="811" type="curve" smooth="yes"/>
      <point x="888" y="811"/>
      <point x="793" y="685"/>
      <point x="769" y="616" type="curve"/>
      <point x="787" y="459" type="line"/>
      <point x="787" y="766" type="line"/>
      <point x="701" y="766" type="line"/>
    </contour>
  </outline>
</glyph>
<glyph name="peseta" format="2">
  <advance width="1352"/>
  <unicode hex="20A7"/>
  <anchor x="786" y="-20" name="_bottom"/>
  <anchor x="786" y="475" name="bar"/>
  <anchor x="786" y="-336" name="bottom"/>
  <anchor x="786" y="1430" name="top"/>
  <outline>
    <contour>
      <point x="148" y="593" type="line"/>
      <point x="424" y="593" type="line"/>
      <point x="424" y="670" type="line"/>
      <point x="148" y="670" type="line"/>
    </contour>
    <component base="P" xOffset="262"/>
  </outline>
</glyph>
<glyph name="infinity" format="2">
  <advance width="1519"/>
  <unicode hex="221E"/>
  <note>
infinity
</note>
  <outline>
    <contour>
      <point x="464" y="293" type="curve" smooth="yes"/>
      <point x="578" y="293"/>
      <point x="658" y="360"/>
      <point x="765" y="533" type="curve"/>
      <point x="868" y="369"/>
      <point x="955" y="295"/>
      <point x="1059" y="295" type="curve" smooth="yes"/>
      <point x="1254" y="295"/>
      <point x="1373" y="413"/>
      <point x="1373" y="606" type="curve" smooth="yes"/>
      <point x="1373" y="796"/>
      <point x="1253" y="913"/>
      <point x="1055" y="913" type="curve" smooth="yes"/>
      <point x="938" y="913"/>
      <point x="853" y="840"/>
      <point x="755" y="670" type="curve"/>
      <point x="662" y="830"/>
      <point x="569" y="911"/>
      <point x="462" y="911" type="curve" smooth="yes"/>
      <point x="265" y="911"/>
      <point x="146" y="793"/>
      <point x="146" y="600" type="curve" smooth="yes"/>
      <point x="146" y="410"/>
      <point x="266" y="293"/>
    </contour>
    <contour>
      <point x="444" y="373" type="curve" smooth="yes"/>
      <point x="303" y="373"/>
      <point x="239" y="438"/>
      <point x="239" y="579" type="curve" smooth="yes"/>
      <point x="239" y="748"/>
      <point x="316" y="833"/>
      <point x="467" y="833" type="curve" smooth="yes"/>
      <point x="566" y="833"/>
      <point x="659" y="728"/>
      <point x="720" y="613" type="curve"/>
      <point x="653" y="460"/>
      <point x="572" y="373"/>
    </contour>
    <contour>
      <point x="1055" y="373" type="curve" smooth="yes"/>
      <point x="955" y="373"/>
      <point x="866" y="477"/>
      <point x="804" y="594" type="curve"/>
      <point x="870" y="745"/>
      <point x="951" y="833"/>
      <point x="1077" y="833" type="curve" smooth="yes"/>
      <point x="1218" y="833"/>
      <point x="1282" y="768"/>
      <point x="1282" y="625" type="curve" smooth="yes"/>
      <point x="1282" y="452"/>
      <point x="1211" y="373"/>
    </contour>
  </outline>
</glyph>
<glyph name="integral" format="2">
  <advance width="1174"/>
  <unicode hex="222B"/>
  <note>
integral
</note>
  <outline>
    <contour>
      <point x="267" y="-505" type="curve" smooth="yes"/>
      <point x="437" y="-505"/>
      <point x="468" y="-323"/>
      <point x="507" y="-115" type="curve" smooth="yes"/>
      <point x="743" y="1134" type="line" smooth="yes"/>
      <point x="790" y="1381"/>
      <point x="822" y="1444"/>
      <point x="908" y="1453" type="curve"/>
      <point x="958" y="1448"/>
      <point x="982" y="1429"/>
      <point x="982" y="1397" type="curve" smooth="yes"/>
      <point x="982" y="1344"/>
      <point x="949" y="1271"/>
      <point x="933" y="1251" type="curve"/>
      <point x="991" y="1251" type="line"/>
      <point x="1008" y="1276"/>
      <point x="1037" y="1349"/>
      <point x="1037" y="1407" type="curve" smooth="yes"/>
      <point x="1037" y="1487"/>
      <point x="990" y="1534"/>
      <point x="906" y="1534" type="curve" smooth="yes"/>
      <point x="739" y="1534"/>
      <point x="706" y="1357"/>
      <point x="666" y="1144" type="curve" smooth="yes"/>
      <point x="430" y="-105" type="line" smooth="yes"/>
      <point x="383" y="-352"/>
      <point x="352" y="-417"/>
      <point x="265" y="-424" type="curve"/>
      <point x="214" y="-419"/>
      <point x="192" y="-402"/>
      <point x="192" y="-368" type="curve" smooth="yes"/>
      <point x="192" y="-314"/>
      <point x="227" y="-234"/>
      <point x="242" y="-222" type="curve"/>
      <point x="181" y="-222" type="line"/>
      <point x="165" y="-251"/>
      <point x="137" y="-317"/>
      <point x="137" y="-376" type="curve" smooth="yes"/>
      <point x="137" y="-458"/>
      <point x="183" y="-505"/>
    </contour>
  </outline>
</glyph>
<glyph name="_cyrillic_bar.case" format="2">
  <advance width="1144"/>
  <anchor x="675" y="472" name="_center"/>
  <outline>
    <contour>
      <point x="433" y="431" type="line"/>
      <point x="921" y="431" type="line"/>
      <point x="921" y="511" type="line"/>
      <point x="433" y="511" type="line"/>
    </contour>
  </outline>
</glyph>
<glyph name="_cyrillicdescender01" format="2">
  <advance width="1224"/>
  <outline>
    <contour>
      <point x="163" y="0" type="line"/>
      <point x="82" y="0" type="line"/>
      <point x="87" y="-171" type="line"/>
      <point x="158" y="-171" type="line"/>
    </contour>
  </outline>
</glyph>
<glyph name="brevecomb-cy" format="2">
  <anchor x="286" y="990" name="_top"/>
  <outline>
    <contour>
      <point x="286" y="1053" type="curve" smooth="yes"/>
      <point x="444" y="1053"/>
      <point x="501" y="1106"/>
      <point x="546" y="1299" type="curve"/>
      <point x="448" y="1299" type="line"/>
      <point x="408" y="1172"/>
      <point x="374" y="1137"/>
      <point x="286" y="1137" type="curve" smooth="yes"/>
      <point x="198" y="1137"/>
      <point x="164" y="1172"/>
      <point x="124" y="1299" type="curve"/>
      <point x="26" y="1299" type="line"/>
      <point x="73" y="1106"/>
      <point x="128" y="1053"/>
    </contour>
  </outline>
</glyph>
<glyph name="cyrillic_bar_long" format="2">
  <advance width="1620"/>
  <anchor x="811" y="734" name="_center"/>
  <outline>
    <contour>
      <point x="181" y="695" type="line"/>
      <point x="1441" y="695" type="line"/>
      <point x="1441" y="772" type="line"/>
      <point x="181" y="772" type="line"/>
    </contour>
  </outline>
</glyph>
<glyph name="f_f_i" format="2">
  <advance width="1003"/>
  <anchor x="307.667" y="0" name="caret_1"/>
  <anchor x="615.333" y="0" name="caret_2"/>
  <outline>
    <contour>
      <point x="558" y="0" type="line"/>
      <point x="643" y="0" type="line"/>
      <point x="643" y="1115" type="line" smooth="yes"/>
      <point x="643" y="1378"/>
      <point x="668" y="1450"/>
      <point x="756" y="1450" type="curve" smooth="yes"/>
      <point x="812" y="1450"/>
      <point x="855" y="1428"/>
      <point x="855" y="1388" type="curve" smooth="yes"/>
      <point x="855" y="1371"/>
      <point x="849" y="1349"/>
      <point x="843" y="1331" type="curve"/>
      <point x="922" y="1331" type="line"/>
      <point x="927" y="1339"/>
      <point x="937" y="1367"/>
      <point x="937" y="1396" type="curve" smooth="yes"/>
      <point x="937" y="1480"/>
      <point x="864" y="1532"/>
      <point x="748" y="1532" type="curve" smooth="yes"/>
      <point x="544" y="1532"/>
      <point x="558" y="1312"/>
      <point x="558" y="1114" type="curve"/>
    </contour>
    <contour>
      <point x="281" y="0" type="line"/>
      <point x="366" y="0" type="line"/>
      <point x="366" y="1032" type="line" smooth="yes"/>
      <point x="366" y="1295"/>
      <point x="381" y="1367"/>
      <point x="469" y="1367" type="curve" smooth="yes"/>
      <point x="525" y="1367"/>
      <point x="557" y="1345"/>
      <point x="557" y="1305" type="curve"/>
      <point x="558" y="1048" type="line"/>
      <point x="625" y="1248" type="line"/>
      <point x="630" y="1256"/>
      <point x="640" y="1284"/>
      <point x="640" y="1313" type="curve" smooth="yes"/>
      <point x="640" y="1391"/>
      <point x="558" y="1449"/>
      <point x="461" y="1449" type="curve" smooth="yes"/>
      <point x="271" y="1449"/>
      <point x="281" y="1229"/>
      <point x="281" y="1031" type="curve" smooth="yes"/>
    </contour>
    <contour>
      <point x="77" y="909" type="line"/>
      <point x="569" y="909" type="line"/>
      <point x="569" y="988" type="line"/>
      <point x="77" y="988" type="line"/>
    </contour>
    <contour>
      <point x="354" y="909" type="line"/>
      <point x="846" y="909" type="line"/>
      <point x="846" y="988" type="line"/>
      <point x="354" y="988" type="line"/>
    </contour>
    <contour>
      <point x="835" y="0" type="line"/>
      <point x="921" y="0" type="line"/>
      <point x="921" y="988" type="line"/>
      <point x="835" y="988" type="line"/>
    </contour>
  </outline>
</glyph>
<glyph name="f_t" format="2">
  <advance width="1028"/>
  <anchor x="257" y="0" name="bottom_1"/>
  <anchor x="771" y="0" name="bottom_2"/>
  <anchor x="514" y="0" name="caret_1"/>
  <anchor x="257" y="1514" name="top_1"/>
  <anchor x="771" y="1514" name="top_2"/>
  <outline>
    <contour>
      <point x="744" y="-27" type="curve" smooth="yes"/>
      <point x="801" y="-27"/>
      <point x="890" y="-14"/>
      <point x="949" y="-1" type="curve"/>
      <point x="949" y="83" type="line"/>
      <point x="912" y="76"/>
      <point x="841" y="54"/>
      <point x="770" y="54" type="curve" smooth="yes"/>
      <point x="645" y="54"/>
      <point x="660" y="136"/>
      <point x="660" y="245" type="curve" smooth="yes"/>
      <point x="660" y="909" type="line"/>
      <point x="926" y="909" type="line"/>
      <point x="926" y="988" type="line"/>
      <point x="660" y="988" type="line"/>
      <point x="660" y="1356" type="line" smooth="yes"/>
      <point x="660" y="1480"/>
      <point x="576" y="1532"/>
      <point x="471" y="1532" type="curve" smooth="yes"/>
      <point x="256" y="1532"/>
      <point x="281" y="1312"/>
      <point x="281" y="1114" type="curve" smooth="yes"/>
      <point x="281" y="988" type="line"/>
      <point x="77" y="988" type="line"/>
      <point x="77" y="909" type="line"/>
      <point x="281" y="909" type="line"/>
      <point x="281" y="0" type="line"/>
      <point x="366" y="0" type="line"/>
      <point x="366" y="909" type="line"/>
      <point x="573" y="909" type="line"/>
      <point x="573" y="231" type="line" smooth="yes"/>
      <point x="573" y="135"/>
      <point x="564" y="-27"/>
    </contour>
    <contour>
      <point x="378" y="988" type="curve" smooth="yes"/>
      <point x="366" y="988" type="line"/>
      <point x="366" y="1115" type="line" smooth="yes"/>
      <point x="366" y="1378"/>
      <point x="366" y="1450"/>
      <point x="479" y="1450" type="curve" smooth="yes"/>
      <point x="573" y="1450"/>
      <point x="594" y="1401"/>
      <point x="594" y="1295" type="curve"/>
      <point x="594" y="1276" type="line"/>
      <point x="595" y="1032"/>
      <point x="589" y="989"/>
    </contour>
  </outline>
</glyph>
<glyph name="four.dnom" format="2">
  <advance width="597"/>
  <note>
four
</note>
  <outline>
    <contour>
      <point x="400" y="0" type="line"/>
      <point x="482" y="0" type="line"/>
      <point x="482" y="309" type="line"/>
      <point x="379" y="238" type="line"/>
      <point x="601" y="238" type="line"/>
      <point x="601" y="307" type="line"/>
      <point x="379" y="307" type="line"/>
      <point x="482" y="261" type="line"/>
      <point x="482" y="596" type="line"/>
      <point x="400" y="596" type="line"/>
      <point x="400" y="261" type="line"/>
      <point x="473" y="307" type="line"/>
      <point x="59" y="307" type="line"/>
      <point x="101" y="283" type="line"/>
      <point x="205" y="496"/>
      <point x="263" y="667"/>
      <point x="318" y="948" type="curve"/>
      <point x="241" y="948" type="line"/>
      <point x="182" y="662"/>
      <point x="121" y="486"/>
      <point x="-9" y="238" type="curve"/>
      <point x="473" y="238" type="line"/>
      <point x="400" y="309" type="line"/>
    </contour>
  </outline>
</glyph>
<glyph name="m.rvrn" format="2">
  <advance width="1725"/>
  <note>
m
</note>
  <anchor x="858" y="-20" name="bottom"/>
  <anchor x="858" y="989" name="top"/>
  <outline>
    <contour>
      <point x="109" y="0" type="line"/>
      <point x="195" y="0" type="line"/>
      <point x="195" y="571" type="line" smooth="yes"/>
      <point x="195" y="799"/>
      <point x="329" y="936"/>
      <point x="554" y="936" type="curve" smooth="yes"/>
      <point x="746" y="936"/>
      <point x="826" y="845"/>
      <point x="826" y="631" type="curve" smooth="yes"/>
      <point x="826" y="0" type="line"/>
      <point x="912" y="0" type="line"/>
      <point x="912" y="721" type="line"/>
      <point x="905" y="721" type="line"/>
      <point x="884" y="919"/>
      <point x="774" y="1016"/>
      <point x="571" y="1016" type="curve" smooth="yes"/>
      <point x="352" y="1016"/>
      <point x="209" y="905"/>
      <point x="172" y="705" type="curve"/>
      <point x="195" y="659" type="line"/>
      <point x="195" y="990" type="line"/>
      <point x="109" y="990" type="line"/>
    </contour>
    <contour>
      <point x="1537" y="0" type="line"/>
      <point x="1623" y="0" type="line"/>
      <point x="1623" y="658" type="line" smooth="yes"/>
      <point x="1623" y="895"/>
      <point x="1510" y="1016"/>
      <point x="1284" y="1016" type="curve" smooth="yes"/>
      <point x="1053" y="1016"/>
      <point x="904" y="893"/>
      <point x="876" y="678" type="curve"/>
      <point x="918" y="480" type="line"/>
      <point x="881" y="764"/>
      <point x="1014" y="933"/>
      <point x="1267" y="933" type="curve" smooth="yes"/>
      <point x="1459" y="933"/>
      <point x="1537" y="844"/>
      <point x="1537" y="631" type="curve" smooth="yes"/>
    </contour>
  </outline>
</glyph>
<glyph name="one.dnom" format="2">
  <advance width="308"/>
  <note>
one
</note>
  <outline>
    <contour>
      <point x="132" y="-1" type="line"/>
      <point x="222" y="-1" type="line"/>
      <point x="222" y="943" type="line"/>
      <point x="185" y="943" type="line"/>
      <point x="-15" y="654" type="line"/>
      <point x="28" y="622" type="line"/>
      <point x="176" y="829" type="line"/>
      <point x="132" y="840" type="line"/>
    </contour>
  </outline>
</glyph>
<glyph name="six.dnom" format="2">
  <advance width="652"/>
  <note>
six
</note>
  <outline>
    <contour>
      <point x="322" y="-22" type="curve" smooth="yes"/>
      <point x="520" y="-24"/>
      <point x="642" y="96"/>
      <point x="642" y="294" type="curve" smooth="yes"/>
      <point x="642" y="474"/>
      <point x="524" y="597"/>
      <point x="345" y="597" type="curve" smooth="yes"/>
      <point x="226" y="597"/>
      <point x="111" y="536"/>
      <point x="79" y="390" type="curve"/>
      <point x="114" y="405" type="line"/>
      <point x="113" y="519"/>
      <point x="133" y="625"/>
      <point x="214" y="723" type="curve" smooth="yes"/>
      <point x="254" y="771"/>
      <point x="345" y="863"/>
      <point x="505" y="890" type="curve"/>
      <point x="506" y="953" type="line"/>
      <point x="335" y="938"/>
      <point x="223" y="834"/>
      <point x="169" y="776" type="curve" smooth="yes"/>
      <point x="24" y="620"/>
      <point x="27" y="408"/>
      <point x="27" y="350" type="curve" smooth="yes"/>
      <point x="27" y="53"/>
      <point x="166" y="-20"/>
    </contour>
    <contour>
      <point x="332" y="43" type="curve" smooth="yes"/>
      <point x="186" y="45"/>
      <point x="117" y="170"/>
      <point x="119" y="305" type="curve" smooth="yes"/>
      <point x="121" y="466"/>
      <point x="235" y="530"/>
      <point x="348" y="530" type="curve" smooth="yes"/>
      <point x="515" y="530"/>
      <point x="553" y="387"/>
      <point x="553" y="286" type="curve" smooth="yes"/>
      <point x="553" y="129"/>
      <point x="455" y="42"/>
    </contour>
  </outline>
</glyph>
<glyph name="strokelongcomb.case" format="2">
  <anchor x="764" y="1140.5" name="_center"/>
  <outline>
    <contour>
      <point x="64" y="1098" type="line"/>
      <point x="1464" y="1098" type="line"/>
      <point x="1464" y="1183" type="line"/>
      <point x="64" y="1183" type="line"/>
    </contour>
  </outline>
</glyph>
<glyph name="two.dnom" format="2">
  <advance width="651"/>
  <note>
two
</note>
  <outline>
    <contour>
      <point x="4" y="0" type="line"/>
      <point x="626" y="0" type="line"/>
      <point x="626" y="77" type="line"/>
      <point x="134" y="77" type="line"/>
      <point x="111" y="36" type="line"/>
      <point x="217" y="131"/>
      <point x="400" y="335"/>
      <point x="452" y="390" type="curve" smooth="yes"/>
      <point x="606" y="555"/>
      <point x="611" y="630"/>
      <point x="611" y="701" type="curve" smooth="yes"/>
      <point x="611" y="866"/>
      <point x="488" y="964"/>
      <point x="325" y="964" type="curve" smooth="yes"/>
      <point x="148" y="964"/>
      <point x="42" y="852"/>
      <point x="42" y="717" type="curve" smooth="yes"/>
      <point x="42" y="706"/>
      <point x="42" y="680"/>
      <point x="46" y="651" type="curve"/>
      <point x="134" y="652" type="line"/>
      <point x="134" y="702" type="line" smooth="yes"/>
      <point x="134" y="811"/>
      <point x="204" y="900"/>
      <point x="323" y="900" type="curve" smooth="yes"/>
      <point x="431" y="900"/>
      <point x="516" y="832"/>
      <point x="516" y="711" type="curve" smooth="yes"/>
      <point x="516" y="562"/>
      <point x="402" y="439"/>
      <point x="255" y="277" type="curve" smooth="yes"/>
    </contour>
  </outline>
</glyph>
<glyph name="w.rvrn" format="2">
  <advance width="1667"/>
  <note>
w
</note>
  <anchor x="833" y="-20" name="bottom"/>
  <anchor x="833" y="989" name="top"/>
  <outline>
    <contour>
      <point x="1118" y="-27" type="line"/>
      <point x="1124" y="-27" type="line"/>
      <point x="1592" y="990" type="line"/>
      <point x="1554" y="990" type="line"/>
      <point x="1123" y="50" type="line"/>
      <point x="1174" y="92" type="line"/>
      <point x="753" y="990" type="line"/>
      <point x="642" y="990" type="line"/>
    </contour>
    <contour>
      <point x="551" y="-27" type="line"/>
      <point x="556" y="-27" type="line"/>
      <point x="858" y="631" type="line"/>
      <point x="840" y="674" type="line"/>
      <point x="568" y="77" type="line"/>
      <point x="606" y="92" type="line"/>
      <point x="186" y="990" type="line"/>
      <point x="75" y="990" type="line"/>
    </contour>
  </outline>
</glyph>
